<svg xmlns="http://www.w3.org/2000/svg" width="296.176" height="712.75" viewBox="0 0 296.176 712.75">
  <g id="Group_1475" data-name="Group 1475" transform="translate(-232 -1252)">
    <line id="Line_113" data-name="Line 113" y2="521" transform="translate(382.774 1442.5)" fill="none" stroke="#65715a" stroke-linecap="round" stroke-width="2.5" stroke-dasharray="10 12"/>
    <path id="Rectangle_37" data-name="Rectangle 37" d="M90,0h19.176a0,0,0,0,1,0,0V45.176a90,90,0,0,1-90,90H0a0,0,0,0,1,0,0V90A90,90,0,0,1,90,0Z" transform="translate(367.176 1410) rotate(90)" fill="#627258"/>
    <path id="Rectangle_205" data-name="Rectangle 205" d="M90,0h19.176a0,0,0,0,1,0,0V45.176a90,90,0,0,1-90,90H0a0,0,0,0,1,0,0V90A90,90,0,0,1,90,0Z" transform="matrix(-0.766, 0.643, -0.643, -0.766, 467.523, 1355.551)" fill="#627258"/>
    <path id="Rectangle_203" data-name="Rectangle 203" d="M90,0h19.176a0,0,0,0,1,0,0V45.176a90,90,0,0,1-90,90H0a0,0,0,0,1,0,0V90A90,90,0,0,1,90,0Z" transform="translate(368 1638) rotate(90)" fill="#627258"/>
    <path id="Rectangle_41" data-name="Rectangle 41" d="M90,0h45.176a0,0,0,0,1,0,0V15.088a90,90,0,0,1-90,90H0a0,0,0,0,1,0,0V90A90,90,0,0,1,90,0Z" transform="translate(528.176 1639.088) rotate(180)" fill="#627258"/>
    <path id="Rectangle_204" data-name="Rectangle 204" d="M90,0h45.176a0,0,0,0,1,0,0V15.088a90,90,0,0,1-90,90H0a0,0,0,0,1,0,0V90A90,90,0,0,1,90,0Z" transform="translate(528.176 1864.088) rotate(180)" fill="#627258"/>
    <text id="_2009" data-name="2009" transform="translate(272 1474)" fill="#fff" font-size="30" font-family="AvenirNextCondensed-Regular, Avenir Next Condensed"><tspan x="0" y="0">2009</tspan></text>
    <text id="_2020" data-name="2020" transform="translate(273.824 1702.088)" fill="#fff" font-size="30" font-family="AvenirNextCondensed-Regular, Avenir Next Condensed"><tspan x="0" y="0">2020</tspan></text>
    <text id="_2011" data-name="2011" transform="translate(433 1596)" fill="#fff" font-size="30" font-family="AvenirNextCondensed-Regular, Avenir Next Condensed"><tspan x="0" y="0">2011</tspan></text>
    <text id="_2021" data-name="2021" transform="translate(433 1821)" fill="#fff" font-size="30" font-family="AvenirNextCondensed-Regular, Avenir Next Condensed"><tspan x="0" y="0">2021</tspan></text>
    <g id="Group_908" data-name="Group 908" transform="translate(-326.104 1091)" opacity="0.898">
      <g id="Group_906" data-name="Group 906" transform="translate(688.256 208)">
        <g id="Group_904" data-name="Group 904" transform="translate(0 0)">
          <g id="Group_903" data-name="Group 903">
            <g id="Group_902" data-name="Group 902">
              <g id="Group_895" data-name="Group 895" transform="translate(18.213 18.955)">
                <path id="Path_22242" data-name="Path 22242" d="M60.995,106.9l-.856-1.9a61.074,61.074,0,0,1,1.467-11.834,57.48,57.48,0,0,1,1.778-6.309c.935-2.711,2.164-5.379,4.757-11.017a39.5,39.5,0,0,0,3.166-17.121,44.813,44.813,0,0,0-.93-8.288l1.339-.35a45.271,45.271,0,0,1,.977,8.6,41.152,41.152,0,0,1-3.31,17.894C63.634,89.064,60.578,100.117,60.995,106.9Z" transform="translate(-60.139 -50.079)" fill="#fff" stroke="#565f48" stroke-width="0.024"/>
              </g>
              <g id="Group_896" data-name="Group 896" transform="translate(13.603)">
                <path id="Path_22243" data-name="Path 22243" d="M78.516,54.229A15.7,15.7,0,0,0,82.134,42.7l-.727.077a16.143,16.143,0,0,1-3.233,10.662,8.573,8.573,0,0,1-5.823,3.2l-.018,0h-.005l-.018,0H72.3l-.018,0h-.005l-.023,0h-.005l-.033,0h-.013l-.008,0h-.01c-4.078.362-7.229-2.138-9.154-4.3a17.653,17.653,0,0,1-3.94-7.2l-.75.08c.465,2.968,3.516,8.329,8.093,10.819a4.408,4.408,0,0,0-.511,2.089,5.453,5.453,0,0,1,1.7-1.324c.869,2.616,3.251,5.446,5.543,5.2a2.559,2.559,0,0,0,.272-.082,1.458,1.458,0,0,0,.146.026c2.046-.087,3.426-3.6,3.428-6.394l.01-.005a4.753,4.753,0,0,1,2.8.82A4.219,4.219,0,0,0,78.516,54.229Z" transform="translate(-58.345 -42.703)" fill="#fff"/>
                <path id="Path_22244" data-name="Path 22244" d="M66.341,54.552a18.13,18.13,0,0,1-1.678-3.929,55.827,55.827,0,0,1-1.835-7.3l-1.7.18a31.254,31.254,0,0,0,2.393,7.1A10.88,10.88,0,0,0,66.341,54.552Z" transform="translate(-53.97 -41.731)" fill="#fff"/>
                <path id="Path_22245" data-name="Path 22245" d="M65.925,55,64.085,43.21l-2.033.216a56.7,56.7,0,0,0,1.812,7.206C64.817,53.523,65.519,54.6,65.925,55Z" transform="translate(-52.525 -41.907)" fill="#fff"/>
                <path id="Path_22246" data-name="Path 22246" d="M64.234,54.886l.033-.039C66.1,52.683,66.262,46.433,65.853,43l-1.7.18C64.54,46.03,65.036,52.216,64.234,54.886Z" transform="translate(-49.221 -42.237)" fill="#fff"/>
                <path id="Path_22247" data-name="Path 22247" d="M64.654,54.387c.031-.033.064-.067.1-.1,2.154-2.57,2.721-8,2.357-11.369l-1.359.146C66.1,46.055,66.07,51.5,64.654,54.387Z" transform="translate(-48.441 -42.37)" fill="#fff"/>
                <path id="Path_22248" data-name="Path 22248" d="M65.634,53.567c.19-.193.378-.4.558-.614a15.471,15.471,0,0,0,3.1-10.192l-1.136.121C68.42,45.711,67.824,50.46,65.634,53.567Z" transform="translate(-46.902 -42.612)" fill="#fff"/>
                <path id="Path_22249" data-name="Path 22249" d="M65.757,53.23A15.166,15.166,0,0,1,63.5,50.809a19.838,19.838,0,0,1-3.472-7.227L58.9,43.7a17.261,17.261,0,0,0,3.785,6.874A14.424,14.424,0,0,0,65.757,53.23Z" transform="translate(-57.477 -41.321)" fill="#fff"/>
                <path id="Path_22250" data-name="Path 22250" d="M65.139,43.1l-2.035.216,1.853,11.868C65.931,53.776,65.723,47.32,65.139,43.1Z" transform="translate(-50.874 -42.083)" fill="#fff"/>
                <path id="Path_22251" data-name="Path 22251" d="M65.128,53.987c.108-.116.216-.229.321-.355,2.434-2.922,3.1-7.895,2.832-10.8l-1.249.131C67.323,45.768,67.032,50.9,65.128,53.987Z" transform="translate(-47.697 -42.494)" fill="#fff"/>
                <path id="Path_22252" data-name="Path 22252" d="M66.257,54.021c-2.272-2.567-4-7.738-4.564-10.6l-1.349.144a23.377,23.377,0,0,0,2.883,7.018A12.35,12.35,0,0,0,66.257,54.021Z" transform="translate(-55.207 -41.577)" fill="#fff"/>
                <path id="Path_22253" data-name="Path 22253" d="M66.1,53.634a14.915,14.915,0,0,1-2.282-2.878A23.688,23.688,0,0,1,60.843,43.5l-1.244.134a19.453,19.453,0,0,0,3.349,6.941A13.126,13.126,0,0,0,66.1,53.634Z" transform="translate(-56.376 -41.446)" fill="#fff"/>
              </g>
              <g id="Group_898" data-name="Group 898" transform="translate(0 15.879)">
                <g id="Group_897" data-name="Group 897">
                  <path id="Path_22254" data-name="Path 22254" d="M58.93,82.216A64.2,64.2,0,0,1,56.15,71.67a46.758,46.758,0,0,1-.414-9.981c.293-5.564,1.352-7.938,1.93-9.208a9.572,9.572,0,0,1,1.658-2.67l-.126-.152-.17-.206a9.677,9.677,0,0,0-1.745,2.773,25.039,25.039,0,0,0-2,9.38,55.111,55.111,0,0,0,2.4,17.724,141.171,141.171,0,0,0,9.845,24.763l.182-.159c-1.974-3.981-3.523-7.532-4.708-10.452C60.927,88.379,59.588,84.3,58.93,82.216Z" transform="translate(-49.607 -47.985)" fill="none"/>
                  <path id="Path_22255" data-name="Path 22255" d="M69.872,99.09l1-.26-2.2-4.269,1.64-.272-2.56-4.515,2.668-.411s-4.649-5.1-4.209-5.325a37.217,37.217,0,0,1,3.716-.8s-1.28-2.65-3.161-3.482c-4.441-1.961-3.122-2.539-3.122-2.539l4.58-.139a8.643,8.643,0,0,0-3-3.428,7.4,7.4,0,0,1-2.788-2.984l3.893,1.866s.033-2.223-2.59-5.153a11.1,11.1,0,0,1-2.511-6.99L64.27,63.8c-1-3.947-.47-11.564-.231-14.34a.525.525,0,0,0-.825-.486c-5.407,3.657-8.427,12.505-8.427,12.505L57.7,59.853c-4.77,9.2-4.646,12.035-4.646,12.035l4.042-3.1s1.1,1.85-.694,4.975-.491,7.286-.491,7.286l2.9-1.858a.316.316,0,0,1,.478.177c.876,3.04-.712,7.864-.712,7.864l3.318-1.94-.72,7.954,2.318-2.015.465,5.248,1.578-.66.812,4.338.892-.393q2.432,4.4,4.87,8.81.035-1.993.064-3.983Zm1.105,5.9a141.171,141.171,0,0,1-9.845-24.763,55.111,55.111,0,0,1-2.4-17.724,25.04,25.04,0,0,1,2-9.38,9.677,9.677,0,0,1,1.745-2.773l.17.206.126.152a9.572,9.572,0,0,0-1.658,2.67c-.578,1.27-1.637,3.644-1.93,9.208a46.758,46.758,0,0,0,.414,9.981,64.2,64.2,0,0,0,2.781,10.547c.658,2.082,2,6.163,4.076,11.266,1.185,2.919,2.734,6.471,4.708,10.452Z" transform="translate(-53.052 -48.882)" fill="#fff"/>
                </g>
                <path id="Path_22256" data-name="Path 22256" d="M58.93,82.216A64.2,64.2,0,0,1,56.15,71.67a46.758,46.758,0,0,1-.414-9.981c.293-5.564,1.352-7.938,1.927-9.208a9.607,9.607,0,0,1,1.66-2.67l-.126-.152-.17-.206a9.677,9.677,0,0,0-1.745,2.773,25.039,25.039,0,0,0-2,9.38,55.111,55.111,0,0,0,2.4,17.724,141.171,141.171,0,0,0,9.845,24.763l.182-.159c-1.974-3.981-3.523-7.532-4.708-10.452C60.927,88.379,59.588,84.3,58.93,82.216Z" transform="translate(-49.607 -47.985)" fill="none"/>
              </g>
              <g id="Group_901" data-name="Group 901" transform="translate(14.263 29.428)">
                <g id="Group_899" data-name="Group 899" transform="translate(4.474)">
                  <path id="Path_22257" data-name="Path 22257" d="M78.353,54.807l-.129.152a35.051,35.051,0,0,1-.19,4.59A37.857,37.857,0,0,1,74.349,72.03c-.4.8-.753,1.447-1.467,2.734-2.3,4.137-4.261,7.018-4.9,7.972A114.919,114.919,0,0,0,60.878,95.2l.177.118c2.791-5.281,5.266-9.462,7.011-12.3,3.379-5.5,4.5-6.728,6.412-10.781A40.635,40.635,0,0,0,78.3,59.548,18.379,18.379,0,0,0,78.353,54.807Z" transform="translate(-59.503 -53.129)" fill="none"/>
                  <path id="Path_22258" data-name="Path 22258" d="M78.874,65.775l2.655,1.57c-1.069-12.983-2.346-13.183-2.346-13.183-.362-.057-.712.213-1.221.768C75,58.158,74.256,62.778,74.033,65.063l2.3-.447s.589,1.1-1.624,2.925a21.162,21.162,0,0,0-3.6,3.832l3.629-.532-5.451,5.931,1.858.421L66.177,82.07l2.272.517-4.505,4.788,1.444.329-3.05,3.374.619.141-2.411,4.3.411.093-.614,2.472L61,99.687l3.51-7.728.684.738,2.208-4.343.73.555,2.554-4.844,1.37,1.473,2.608-6.769,1.94,1.8c.93-1.92,1.054-7.509,1.054-7.509l2.56,1.938a6.117,6.117,0,0,0-.252-4.127A19.1,19.1,0,0,1,78.874,65.775Zm-3.557,7.486c-1.915,4.053-3.032,5.279-6.412,10.781-1.745,2.837-4.22,7.018-7.011,12.3l-.177-.118a114.919,114.919,0,0,1,7.106-12.461c.637-.953,2.6-3.834,4.9-7.972.714-1.288,1.072-1.93,1.467-2.734a37.857,37.857,0,0,0,3.685-12.482,35.051,35.051,0,0,0,.19-4.59l.129-.152a18.379,18.379,0,0,1-.049,4.741A40.635,40.635,0,0,1,75.318,73.261Z" transform="translate(-60.343 -54.154)" fill="#fff"/>
                </g>
                <path id="Path_22259" data-name="Path 22259" d="M78.353,54.807l-.126.152a35.428,35.428,0,0,1-.193,4.59A37.857,37.857,0,0,1,74.349,72.03c-.4.8-.753,1.447-1.467,2.734-2.3,4.14-4.261,7.018-4.9,7.972A114.919,114.919,0,0,0,60.878,95.2l.177.118c2.791-5.281,5.266-9.462,7.011-12.3,3.379-5.5,4.5-6.728,6.412-10.781A40.635,40.635,0,0,0,78.3,59.548,18.379,18.379,0,0,0,78.353,54.807Z" transform="translate(-55.029 -53.129)" fill="none"/>
                <g id="Group_900" data-name="Group 900" transform="translate(0 7.633)">
                  <path id="Path_22260" data-name="Path 22260" d="M62.893,57.557a14.421,14.421,0,0,0-1.4,3.179,33.682,33.682,0,0,0-1.547,9.753c-.08,3.349.216,4.544.571,9.354.182,2.483.4,6.106.465,10.57l.141-.021a96.023,96.023,0,0,0-.473-10.709c-.1-.851-.393-3.433-.514-6.97-.039-1.1-.057-1.65-.049-2.321a31.225,31.225,0,0,1,1.568-9.568A27.473,27.473,0,0,1,62.924,57.7Z" transform="translate(-56.509 -56.445)" fill="none"/>
                  <path id="Path_22261" data-name="Path 22261" d="M65.276,66.133a14.9,14.9,0,0,0,.717-8.085c-.136-.54-.262-.838-.5-.923,0,0-.82-.3-5.368,8l2.053-.152A14.274,14.274,0,0,1,59.995,68,4.757,4.757,0,0,0,58.6,70.667l2.107-.429S59.1,74.007,59.072,75.6l1.7-.542-.486,5.4,1.259-.522.059,4.094.6-.123,0,3.642.63-.26L62.6,93.623l.876-.848.38-1.855L64.13,91l-.141-3.68.411.116-.8-3.282.959.27L63.323,79.7l1.506.424L63.343,75.2l1.234.344-1.46-5.8,2,1.58a17.351,17.351,0,0,0-.989-3.77c-.771-1.963-.087-2.5-.087-2.5ZM63.749,61.5a31.225,31.225,0,0,0-1.568,9.568c-.008.671.01,1.221.049,2.321.121,3.536.419,6.119.514,6.97a96.022,96.022,0,0,1,.473,10.709l-.141.021c-.069-4.464-.283-8.087-.465-10.57-.355-4.811-.65-6.006-.571-9.354a33.682,33.682,0,0,1,1.547-9.753,14.421,14.421,0,0,1,1.4-3.179l.031.144A27.473,27.473,0,0,0,63.749,61.5Z" transform="translate(-58.602 -57.124)" fill="#fff"/>
                </g>
              </g>
              <path id="Path_22262" data-name="Path 22262" d="M68.722,55.224" transform="translate(-28.452 -23.047)" fill="#fff"/>
            </g>
          </g>
        </g>
        <g id="Group_905" data-name="Group 905" transform="translate(12.967 73.046)">
          <path id="Path_22263" data-name="Path 22263" d="M70.691,77.272a1.64,1.64,0,0,0-.329-.1,1.983,1.983,0,0,1-.65-.2,1.579,1.579,0,0,1-.468-.535,3.293,3.293,0,0,0-.249-.347,1.464,1.464,0,0,0-.383-.316c-.3-.17-.63-.26-.889-.411a1.447,1.447,0,0,1-.337-.275,3.986,3.986,0,0,0-.326-.337,1.15,1.15,0,0,0-.206-.152,1.281,1.281,0,0,0-.236-.105c-.077-.028-.146-.049-.2-.075a.34.34,0,0,1-.128-.087.354.354,0,0,1-.064-.136l-.013-.041-.01-.049c-.01-.036-.026-.067-.039-.1s-.041-.08-.064-.118l.08.041a1.5,1.5,0,0,0,.3.1,2.076,2.076,0,0,0,.367.051,6.328,6.328,0,0,0,.82-.021,3.533,3.533,0,0,1,.766.021,1.449,1.449,0,0,1,.3.082,1.084,1.084,0,0,1,.231.126.783.783,0,0,1,.157.141.583.583,0,0,1,.093.128l.031.049.018.041c.01.021.018.033.026.033s.013-.013.018-.039l.005-.046a.539.539,0,0,0,0-.062.632.632,0,0,0-.211-.36A1.069,1.069,0,0,0,68.84,74a1.34,1.34,0,0,0-.355-.121,3.106,3.106,0,0,0-.838-.041c-.29.015-.555.044-.792.041a2.178,2.178,0,0,1-.329-.023,1.393,1.393,0,0,1-.275-.064,1.282,1.282,0,0,1-.319-.149c-.128-.182-.252-.347-.352-.5a2.267,2.267,0,0,1-.239-.46.768.768,0,0,1-.049-.2c-.005-.031,0-.059-.005-.087a.7.7,0,0,1,.008-.08.542.542,0,0,1,.093-.221c.031-.046.051-.072.046-.077l0-.005L65.446,72l.018-.031a.17.17,0,0,0,0-.123l-.039-.059-.021-.028-.01-.015-.015-.015c-.046-.039-.09-.08-.139-.118l-.051-.036-.044-.028a.831.831,0,0,0-.09-.054,2.362,2.362,0,0,0-.362-.164,3.934,3.934,0,0,0-.642-.164l-.1-.028a.452.452,0,0,0-.1,0,.471.471,0,0,0-.116.021c-.09.026-.113.051-.121.062l-.018.028a.126.126,0,0,0-.01.067.218.218,0,0,0,.031.093l-.028.067c-.013.033-.023.075-.044.118s-.033.1-.057.152-.046.116-.08.177a2.194,2.194,0,0,1-.113.193l-.072.1c-.028.033-.054.067-.082.1-.062.067-.123.131-.2.2s-.144.134-.213.2a2.011,2.011,0,0,0-.185.211c-.028.036-.049.077-.072.11s-.039.069-.057.1c-.033.064-.064.126-.093.182a2.094,2.094,0,0,0-.116.27l-.013.049c-.17.1-.339.2-.5.293-.18.1-.357.193-.524.293a2.3,2.3,0,0,0-.447.326,1.331,1.331,0,0,0-.275.378,1.223,1.223,0,0,0-.069.18l-.026.085-.015.08a1.606,1.606,0,0,0-.028.265v.041l-.051.134-.026.031c-.026.036-.057.072-.093.113a1.5,1.5,0,0,1-.129.121,1.541,1.541,0,0,1-.172.116,1.3,1.3,0,0,1-.208.1l-.057.021-.059.018c-.041.01-.08.021-.126.028-.175.031-.362.041-.54.075a1.441,1.441,0,0,0-.252.069,1.217,1.217,0,0,0-.2.1.843.843,0,0,0-.139.108l-.049.051-.033.049c-.039.057-.049.09-.039.1s.018,0,.036-.008l.072-.036.054-.023.057-.028q.066-.031.146-.062a1.61,1.61,0,0,1,.393-.093c.159-.021.347-.026.555-.062.051-.01.105-.023.157-.039l.075-.026.069-.028a1.213,1.213,0,0,0,.152-.082,2.463,2.463,0,0,1-.362.329c-.2.154-.409.3-.6.447a2.8,2.8,0,0,0-.5.475,1.5,1.5,0,0,0-.265.517,1.834,1.834,0,0,0-.067.452,2.532,2.532,0,0,0,.015.337.7.7,0,0,0,.054.285c.008,0,.015-.026.026-.075s.018-.118.028-.208.026-.2.046-.326a2.561,2.561,0,0,1,.108-.416,1.462,1.462,0,0,1,.262-.445,2.854,2.854,0,0,1,.483-.421c.188-.139.4-.28.612-.442a2.328,2.328,0,0,0,.568-.6,4.779,4.779,0,0,0,.3-.7,1.554,1.554,0,0,1,.347-.56,2.25,2.25,0,0,1,.529-.362,2.915,2.915,0,0,1,.275-.131c.09-.033.182-.062.272-.087l.039-.01a.541.541,0,0,0-.08.185.742.742,0,0,0-.023.157,1.313,1.313,0,0,0,0,.175,3.6,3.6,0,0,1,.005.373,1.906,1.906,0,0,1-.064.36,1.348,1.348,0,0,1-.049.154c-.015.046-.033.093-.051.134a.78.78,0,0,0-.044.113c-.01.033-.023.062-.031.087-.015.051-.026.08-.015.087s.015,0,.031-.008.036-.021.062-.036.054-.041.085-.067c.015-.015.033-.028.049-.046l.044-.057a1.569,1.569,0,0,0,.093-.136,1.262,1.262,0,0,0,.08-.167,1.324,1.324,0,0,0,.09-.406,1.17,1.17,0,0,0-.005-.213c-.005-.067-.015-.128-.026-.188-.018-.118-.036-.218-.041-.3a.9.9,0,0,1,.008-.2l0-.033a2.417,2.417,0,0,0,.344-.128,1.11,1.11,0,0,0,.3-.213l-.028.059c-.026.054-.046.121-.072.19a1.54,1.54,0,0,0-.046.236,1.956,1.956,0,0,0,.021.581,3.274,3.274,0,0,1,.08.663,1.241,1.241,0,0,1-.08.347l-.093.27a.909.909,0,0,1-.118.129,1.23,1.23,0,0,1-.262.19,1.607,1.607,0,0,1-.164.077c-.059.023-.123.041-.193.062-.139.039-.3.069-.468.123a1.99,1.99,0,0,0-.262.105.9.9,0,0,0-.126.075.757.757,0,0,0-.116.087,1.616,1.616,0,0,0-.326.4c-.08.134-.141.26-.206.373a2.063,2.063,0,0,1-.2.3,1.142,1.142,0,0,1-.229.218,1.794,1.794,0,0,1-.434.229c-.116.041-.185.069-.185.087s.021.018.059.026a.6.6,0,0,0,.159.005,1.4,1.4,0,0,0,.56-.17,1.341,1.341,0,0,0,.314-.236,2.008,2.008,0,0,0,.257-.332c.077-.118.146-.242.224-.36a1.616,1.616,0,0,1,.267-.321c.028-.021.054-.044.082-.062a1.037,1.037,0,0,1,.09-.054,1.805,1.805,0,0,1,.2-.085c.144-.049.3-.09.452-.144.075-.028.149-.057.221-.09a1.459,1.459,0,0,0,.2-.118c.028-.021.057-.044.082-.064l-.018.108c-.021.149-.031.3-.041.447a1.944,1.944,0,0,1-.206.856,1.392,1.392,0,0,1-.3.347,3.484,3.484,0,0,1-.391.288c-.136.087-.285.182-.421.275l-.2.144-.188.152a3.059,3.059,0,0,0-.589.65,2.667,2.667,0,0,0-.308.663l-.041.152c-.013.051-.023.1-.033.146-.021.1-.031.185-.044.27-.021.167-.036.311-.039.429h0c-.021.059-.039.116-.054.175l-.044.157-.031.157c-.008.049-.021.1-.026.146-.021.039-.039.08-.064.121s-.049.087-.075.131q-.081.131-.185.27c-.067.093-.144.182-.224.275s-.167.177-.252.254-.177.159-.26.242a1.356,1.356,0,0,0-.208.26,1.034,1.034,0,0,0-.108.26.8.8,0,0,0-.028.221.754.754,0,0,0,.018.167.4.4,0,0,0,.036.1c.01.023.021.033.026.031s.013-.013.018-.036l.015-.1a1.206,1.206,0,0,1,.1-.339A1.175,1.175,0,0,1,58.463,84a1.663,1.663,0,0,1,.2-.208c.08-.072.172-.144.267-.226a3.473,3.473,0,0,0,.275-.275,3.329,3.329,0,0,0,.229-.3l.064-.1a3.286,3.286,0,0,0,.039.414c.023.154.046.29.067.411l.057.306c.013.085.026.152.036.2s.018.069.026.069.015-.023.026-.069a1.762,1.762,0,0,0,.023-.2c.005-.087.005-.2,0-.316s-.013-.262-.021-.414a3.86,3.86,0,0,1-.005-.491,2.5,2.5,0,0,1,.023-.27l.021-.141c.008-.049.021-.1.031-.144l.033-.146.046-.146a2.814,2.814,0,0,1,.108-.3,1.148,1.148,0,0,1,.069-.152l.072-.154.085-.149.044-.077.049-.075.1-.149c.031-.049.069-.093.105-.141a1.4,1.4,0,0,1,.108-.136l.113-.134.054-.064.062-.062.116-.121c.082-.077.164-.149.244-.224l.249-.2.247-.175.242-.154c.08-.046.159-.09.234-.131.146-.085.293-.157.411-.234q.058-.039.108-.077l-.028.067a1.087,1.087,0,0,0-.087.46,2.163,2.163,0,0,0,.1.6v0c-.054.031-.11.059-.17.087-.134.064-.272.123-.409.188a2.242,2.242,0,0,0-.383.226,1.111,1.111,0,0,0-.275.288,1.215,1.215,0,0,0-.134.293,1.247,1.247,0,0,0-.051.247.95.95,0,0,0-.008.185.574.574,0,0,0,.015.118c.008.026.013.041.023.041s.044-.051.085-.144c.021-.046.039-.105.064-.17s.057-.139.1-.216a1.3,1.3,0,0,1,.149-.231,1.124,1.124,0,0,1,.236-.213,2.346,2.346,0,0,1,.342-.185c.126-.059.267-.118.414-.188l.077-.041.01.049a1.318,1.318,0,0,1,.023.172l0,.087-.005.1a2.887,2.887,0,0,1-.19.789,2.3,2.3,0,0,1-.5.768c-.113.121-.244.242-.373.37a2.227,2.227,0,0,0-.349.445,1.429,1.429,0,0,0-.17.522,2.114,2.114,0,0,0-.005.509c.021.226.059.437.09.64-.2.09-.393.177-.573.27a4.022,4.022,0,0,0-.568.35,2.389,2.389,0,0,0-.409.391,1.566,1.566,0,0,0-.234.383,1.015,1.015,0,0,0-.08.316l0,.062,0,.057a.369.369,0,0,0,.013.085q.012.069.023.069t.023-.069a.731.731,0,0,1,.021-.08l.013-.051.021-.057a1.207,1.207,0,0,1,.126-.278,1.771,1.771,0,0,1,.254-.326,2.333,2.333,0,0,1,.4-.332,3.878,3.878,0,0,1,.547-.3c.144-.069.3-.136.455-.206a2.4,2.4,0,0,1,.005.406,1.4,1.4,0,0,1-.08.373,2.1,2.1,0,0,1-.352.622,5.219,5.219,0,0,1-.419.468c-.134.134-.254.247-.352.339s-.175.164-.224.216-.075.08-.069.085a1.7,1.7,0,0,0,.378-.226c.113-.08.249-.182.4-.308a3.934,3.934,0,0,0,.478-.46,2.259,2.259,0,0,0,.419-.668,1.543,1.543,0,0,0,.105-.419,2.593,2.593,0,0,0,.008-.447l-.01-.1a6.655,6.655,0,0,0,.632-.3,3.418,3.418,0,0,0,.65-.447,2.25,2.25,0,0,0,.254-.267,1.655,1.655,0,0,0,.188-.293,1.408,1.408,0,0,0,.1-.3,1.693,1.693,0,0,0,.031-.29c0-.092,0-.182,0-.265s-.008-.162-.008-.236c0-.224-.005-.414-.013-.568l.01.039c.023.069.049.152.08.236s.069.18.116.278c.087.2.2.419.326.66s.267.5.4.786c.028.067.059.134.087.2v.044a1.059,1.059,0,0,1-.051.247.955.955,0,0,1-.149.272A.99.99,0,0,1,64,85.1c-.118.069-.26.131-.411.2-.075.036-.154.075-.234.118a2.579,2.579,0,0,0-.229.139,2.713,2.713,0,0,0-.4.324,2.536,2.536,0,0,0-.308.347l-.064.087-.057.09a1.435,1.435,0,0,0-.1.172c-.031.054-.054.113-.077.164s-.039.108-.057.157a1.419,1.419,0,0,0-.062.275.9.9,0,0,0-.015.211,1.061,1.061,0,0,0,.013.131c0,.031.01.046.018.049s.015-.015.028-.044.026-.072.046-.123l.036-.087c.01-.033.026-.067.041-.105.026-.075.067-.154.108-.247l.072-.139c.031-.046.054-.1.087-.146s.064-.1.105-.152l.057-.077.062-.077a2.99,2.99,0,0,1,.293-.311,3.52,3.52,0,0,1,.368-.29c.069-.044.136-.09.208-.126a2.386,2.386,0,0,1,.213-.113,3.148,3.148,0,0,0,.427-.242,1.306,1.306,0,0,0,.18-.152,1.111,1.111,0,0,0,.262-.468,2.69,2.69,0,0,1,.08.352,2.121,2.121,0,0,1-.11,1.023,4.735,4.735,0,0,1-.542,1.038c-.229.347-.478.676-.7,1.01-.113.167-.218.332-.316.5s-.177.337-.252.506a4.636,4.636,0,0,0-.391,1.853,4.575,4.575,0,0,0,.059.72,4.289,4.289,0,0,0,.131.535l.069.188c.023.054.046.1.064.136.039.072.062.108.069.105s.005-.044,0-.121l-.054-.334c-.015-.072-.021-.154-.036-.242s-.015-.182-.028-.285a5.2,5.2,0,0,1,0-.7,4.994,4.994,0,0,1,.439-1.75c.054-.064.116-.131.182-.2.134-.139.293-.285.47-.442s.375-.319.581-.5a6.788,6.788,0,0,0,.606-.609,3.259,3.259,0,0,0,.275-.367l.01-.01v0l0,0,.005-.005,0-.005h0v.015h0l0,.015-.013.082-.013.08-.018.082c-.013.057-.031.111-.044.164s-.036.11-.057.164a9.312,9.312,0,0,1-.473,1.013,9.262,9.262,0,0,0-.4.846c-.069.072-.146.149-.231.234a3.224,3.224,0,0,0-.357.409,1.9,1.9,0,0,0-.267.547,1.742,1.742,0,0,0-.069.658,4.127,4.127,0,0,0,.131.676,2.794,2.794,0,0,1,.105.637,1.724,1.724,0,0,1-.087.578,2.161,2.161,0,0,1-.239.5c-.046.077-.1.146-.146.213-.026.033-.054.064-.08.1s-.051.062-.08.09l-.077.085-.08.077c-.049.049-.1.1-.149.136s-.1.082-.136.118-.082.067-.118.093l-.054.041-.044.036-.072.057c-.039.031-.057.049-.051.054s.031,0,.08-.021a1.493,1.493,0,0,0,.211-.087c.044-.023.093-.046.141-.077s.108-.062.164-.1a1.891,1.891,0,0,0,.175-.129l.093-.075.093-.082a.787.787,0,0,0,.093-.093,1.118,1.118,0,0,0,.093-.1,2.561,2.561,0,0,0,.177-.221,2.192,2.192,0,0,0,.29-.537,1.875,1.875,0,0,0,.118-.653,2.83,2.83,0,0,0-.108-.686,5.214,5.214,0,0,1-.141-.642,1.627,1.627,0,0,1,.039-.583,1.843,1.843,0,0,1,.211-.5,3.357,3.357,0,0,1,.234-.316,2.424,2.424,0,0,0-.085.653,2.835,2.835,0,0,0,.159.825c.08.242.162.455.231.642s.136.35.193.478a1.636,1.636,0,0,0,.2.4,1.5,1.5,0,0,0-.075-.427c-.033-.136-.075-.3-.128-.5s-.118-.409-.18-.648a2.872,2.872,0,0,1-.113-.776,2.636,2.636,0,0,1,.193-.874,9.362,9.362,0,0,1,.45-.941,7.784,7.784,0,0,0,.478-1.043c.023-.059.039-.118.057-.177s.033-.118.046-.177l.018-.09.013-.092c.005-.028.01-.059.013-.09l0-.028c.036.152.075.321.113.5.044.211.085.439.118.686a4.559,4.559,0,0,1,.046.784,4.278,4.278,0,0,1-.144.858c-.072.3-.167.6-.249.928a4.866,4.866,0,0,0-.159.964,2.486,2.486,0,0,0,.123.92,3.766,3.766,0,0,0,.385.761c.113.18.229.342.337.491.039.075.08.149.121.218.136.244.283.475.421.7a7.745,7.745,0,0,1,.678,1.241,3.638,3.638,0,0,1,.252,1.1,4.545,4.545,0,0,1-.013.851c-.026.234-.057.416-.077.54s-.028.19-.015.193.044-.057.09-.177a3.461,3.461,0,0,0,.154-.537,4.012,4.012,0,0,0,.085-.876,3.555,3.555,0,0,0-.213-1.159,7.353,7.353,0,0,0-.663-1.293,8.17,8.17,0,0,1-.743-1.439,2.69,2.69,0,0,1-.152-.812,4.056,4.056,0,0,1,.072-.871c.021-.111.044-.221.069-.334l.008.072a3.7,3.7,0,0,0,.1.522,2.551,2.551,0,0,0,.218.55c.023.046.054.09.08.134s.059.082.087.123c.057.08.113.157.17.234.113.152.224.293.324.432a4.121,4.121,0,0,1,.26.393,2.448,2.448,0,0,1,.17.357c.021.057.036.111.051.162s.026.1.031.149l.018.129,0,.113,0,.049,0,.041c0,.026,0,.049,0,.069,0,.036.008.057.015.059s.021-.015.041-.051A.656.656,0,0,0,67.8,94.7l.031-.116c.005-.044.01-.092.013-.144s0-.108,0-.167a1.767,1.767,0,0,0-.026-.185,2.153,2.153,0,0,0-.144-.406,4.171,4.171,0,0,0-.247-.432c-.1-.146-.2-.3-.314-.447l-.164-.229a2,2,0,0,1-.152-.234,2.533,2.533,0,0,1-.208-.491,4.2,4.2,0,0,1-.118-.488c-.013-.08-.023-.157-.033-.231s-.018-.149-.023-.221c-.01-.141-.015-.275-.021-.4v-.072c.054-.208.108-.419.157-.635.015-.08.033-.162.046-.242s.031-.164.039-.244a2.923,2.923,0,0,0,.031-.5c-.013-.329-.067-.64-.1-.938l-.015-.2c.077.1.154.193.231.283.121.144.239.272.339.4a1.679,1.679,0,0,1,.229.373,1.947,1.947,0,0,1,.11.357c.023.113.039.218.051.311l.033.242c.013.067.021.118.031.154s.018.054.028.054.018-.018.031-.054.021-.087.036-.154a2.055,2.055,0,0,0,.023-.578,1.706,1.706,0,0,0-.087-.4,1.765,1.765,0,0,0-.236-.434c-.1-.139-.218-.275-.334-.414s-.234-.285-.352-.437l-.128-.17L66.569,87c.013-.146.01-.3.015-.439s0-.29,0-.432a6.761,6.761,0,0,0-.234-1.606,5.678,5.678,0,0,0-.252-.7,6.381,6.381,0,0,0-.316-.622c-.224-.388-.455-.72-.612-1.023-.036-.067-.067-.129-.1-.19l.031.041a2.2,2.2,0,0,0,.324.362,4.631,4.631,0,0,0,.411.321,4.12,4.12,0,0,1,.385.306,2.594,2.594,0,0,1,.29.326,2.353,2.353,0,0,1,.2.332,2.086,2.086,0,0,1,.123.308c.013.039.021.072.031.108a1.476,1.476,0,0,0-.033.385,1.4,1.4,0,0,0,.123.493,2.7,2.7,0,0,0,.583.779,8.674,8.674,0,0,0,.673.576,3.777,3.777,0,0,1,.547.491,1.278,1.278,0,0,1,.172.242.816.816,0,0,1,.087.234.688.688,0,0,1-.175.622c-.041.049-.069.075-.064.08s.044-.005.108-.044a.631.631,0,0,0,.216-.221.773.773,0,0,0,.1-.455.886.886,0,0,0-.075-.285,1.255,1.255,0,0,0-.175-.285,3.552,3.552,0,0,0-.55-.542c-.208-.177-.429-.365-.635-.576a2.486,2.486,0,0,1-.519-.707,1.15,1.15,0,0,1-.1-.414,1.592,1.592,0,0,1,.051-.442c.036-.157.08-.316.1-.483a1.963,1.963,0,0,0,.008-.491,2.1,2.1,0,0,0-.311-.884,1.536,1.536,0,0,0-.3-.362,3.842,3.842,0,0,0-.355-.265,3.664,3.664,0,0,1-.588-.457,1.452,1.452,0,0,1-.319-.47,1.5,1.5,0,0,1-.08-.216.8.8,0,0,1-.033-.141V80.2l.005-.11c.008-.077.015-.164.031-.262s.036-.206.054-.324a2.1,2.1,0,0,0,.033-.4,1.168,1.168,0,0,0-.1-.447,2.331,2.331,0,0,0-.272-.411,2.049,2.049,0,0,1-.121-.185.729.729,0,0,1-.041-.093l-.018-.046-.01-.049a1.146,1.146,0,0,1-.028-.385c.018-.257.067-.5.077-.7l0-.026c.057.075.118.149.182.224.136.154.285.3.427.455a3.439,3.439,0,0,1,.37.457,1.909,1.909,0,0,1,.216.473,4.467,4.467,0,0,0,.17.473,1.459,1.459,0,0,0,.121.216,1.278,1.278,0,0,0,.152.177,1.862,1.862,0,0,0,.319.252,3.017,3.017,0,0,0,.27.146,1.091,1.091,0,0,0,.18.077c.044.013.069.018.075.013s-.01-.023-.039-.057-.08-.067-.141-.118-.141-.108-.224-.177a1.992,1.992,0,0,1-.257-.254,1.185,1.185,0,0,1-.113-.159,1.852,1.852,0,0,1-.087-.19,3.474,3.474,0,0,1-.113-.367c0-.039.005-.082.005-.128a1.248,1.248,0,0,0-.005-.136c0-.049-.01-.1-.018-.154a2.309,2.309,0,0,0-.085-.344,3.034,3.034,0,0,0-.154-.38c-.064-.131-.141-.267-.224-.4s-.177-.27-.267-.409a2.936,2.936,0,0,1-.226-.4.493.493,0,0,1-.039-.314.97.97,0,0,1,.226.2c.049.054.1.121.154.193a1.879,1.879,0,0,0,.211.234.912.912,0,0,0,.154.111,2.054,2.054,0,0,0,.185.09,1.806,1.806,0,0,1,.355.167.6.6,0,0,1,.218.29c.01.031.021.062.028.087s.008.062.01.1a1.407,1.407,0,0,0,.023.236.411.411,0,0,0,.059.134.752.752,0,0,0,.087.111c.064.067.131.126.2.182a2.337,2.337,0,0,1,.18.172l.036.046.039.051.077.1q.108.15.208.308v0a.737.737,0,0,1,0,.226,1.51,1.51,0,0,1-.069.3c-.036.108-.087.226-.146.357a2.514,2.514,0,0,0-.157.434,1.073,1.073,0,0,0-.036.26,1.1,1.1,0,0,0,.033.272,3.182,3.182,0,0,0,.2.514,1.521,1.521,0,0,1,.149.465.655.655,0,0,1-.013.213,2.159,2.159,0,0,1-.075.216,1.438,1.438,0,0,0-.077.231,1.02,1.02,0,0,0-.018.123.606.606,0,0,0,0,.118.971.971,0,0,0,.128.4,1.625,1.625,0,0,0,.2.285,1.651,1.651,0,0,0,.185.19c.054.049.1.085.131.108s.051.033.059.028,0-.023-.018-.054a1.5,1.5,0,0,0-.077-.139l-.059-.1-.072-.111a2.181,2.181,0,0,1-.146-.28.926.926,0,0,1-.08-.342c0-.031.005-.059.005-.093s.01-.062.021-.092a1.47,1.47,0,0,1,.08-.2,1.92,1.92,0,0,0,.1-.239.869.869,0,0,0,.031-.283,1.153,1.153,0,0,0-.057-.28c-.031-.09-.069-.177-.108-.262a3.846,3.846,0,0,1-.2-.475.844.844,0,0,1-.036-.221,1.021,1.021,0,0,1,.018-.216,2.833,2.833,0,0,1,.121-.414,3.13,3.13,0,0,0,.113-.38,1.218,1.218,0,0,0,.031-.308c.072.118.146.239.221.362l.152.247.077.123c.023.036.028.059.026.059a.151.151,0,0,1-.044.057,1.534,1.534,0,0,0-.116.128.753.753,0,0,0-.141.319,1.1,1.1,0,0,0,.1.632,2.937,2.937,0,0,0,.324.517,3.713,3.713,0,0,1,.306.455,1.212,1.212,0,0,1,.149.457c.021.157.021.319.026.481,0,.08.008.162.015.242a2.385,2.385,0,0,0,.036.236,3.888,3.888,0,0,0,.239.732H69.4c-.005.005-.005.015,0,.033l.021.069a.587.587,0,0,1,.008.257,1.063,1.063,0,0,1-.049.175c-.023.062-.054.126-.087.2s-.072.146-.108.229a1.208,1.208,0,0,0-.087.272.7.7,0,0,0,.01.293,1.144,1.144,0,0,0,.1.249c.039.075.08.139.118.2s.072.118.105.17a2.756,2.756,0,0,0,.177.239.346.346,0,0,0,.057.062c.013.013.023.021.031.018s.008-.013.005-.031a.505.505,0,0,0-.018-.077,2.436,2.436,0,0,0-.093-.27c-.021-.057-.049-.116-.077-.18s-.062-.134-.093-.2a1.32,1.32,0,0,1-.069-.216.606.606,0,0,1-.005-.226,2.2,2.2,0,0,1,.157-.465,1.57,1.57,0,0,0,.067-.224,1.323,1.323,0,0,0,.018-.167c.051.116.1.226.139.326a4.164,4.164,0,0,1,.175.488l0,.021a3.73,3.73,0,0,0,.077.493,1.419,1.419,0,0,0,.18.429,3.368,3.368,0,0,0,.247.326,2.369,2.369,0,0,1,.2.262.746.746,0,0,1,.128.4c0,.1-.026.146-.013.152s.051-.041.077-.146a.694.694,0,0,0-.082-.452,1.959,1.959,0,0,0-.182-.288c-.072-.1-.152-.206-.218-.321a1.266,1.266,0,0,1-.139-.4,3.694,3.694,0,0,1-.057-.478c-.051-.684-.121-1.5-.2-2.4a6.837,6.837,0,0,0-.252-1.424c-.028-.093-.064-.185-.1-.278.028.031.059.062.09.09.17.154.378.3.555.457a1.206,1.206,0,0,1,.213.254,1.069,1.069,0,0,1,.116.27,1.308,1.308,0,0,1,.028.5c-.008.075-.023.139-.033.2s-.026.108-.036.149c-.021.085-.031.134-.015.139s.021-.005.039-.023a.557.557,0,0,0,.069-.085,1.2,1.2,0,0,0,.082-.146,1.047,1.047,0,0,0,.077-.206A1.193,1.193,0,0,0,70.778,82a1.013,1.013,0,0,0-.123-.329,1.342,1.342,0,0,0-.252-.3,3.462,3.462,0,0,0-.3-.242c-.1-.075-.193-.141-.278-.208a1.639,1.639,0,0,1-.216-.2,1.015,1.015,0,0,1-.141-.2l-.041-.085a2.076,2.076,0,0,1,.185-.591l.039-.092a.794.794,0,0,0,.033-.1,1.209,1.209,0,0,0,.046-.208,1.412,1.412,0,0,0-.013-.416,1.607,1.607,0,0,0-.37-.738,2.4,2.4,0,0,0-.658-.524,3.837,3.837,0,0,1-.329-.2,1.162,1.162,0,0,1-.242-.234.966.966,0,0,1-.152-.275,1.038,1.038,0,0,1-.057-.3,2.927,2.927,0,0,0-.026-.326.664.664,0,0,0-.141-.329.836.836,0,0,0-.311-.218c-.111-.049-.221-.082-.319-.118a1.643,1.643,0,0,1-.272-.118,1.442,1.442,0,0,1-.224-.157,1.164,1.164,0,0,1-.427-.774c0-.051,0-.105,0-.154a.615.615,0,0,0,.1.057c.08.036.154.062.224.087a.923.923,0,0,1,.182.087.911.911,0,0,1,.159.123,4.171,4.171,0,0,1,.3.324,2.291,2.291,0,0,0,.177.175,1.515,1.515,0,0,0,.216.159,4.342,4.342,0,0,0,.47.226,3.76,3.76,0,0,1,.419.2,1.145,1.145,0,0,1,.311.249,3.747,3.747,0,0,1,.236.316,3.169,3.169,0,0,0,.244.326,1.267,1.267,0,0,0,.329.272.694.694,0,0,0,.1.049.551.551,0,0,0,.1.041,1.672,1.672,0,0,0,.2.054c.128.026.249.041.357.059a1.566,1.566,0,0,1,.288.072.832.832,0,0,1,.218.113.744.744,0,0,1,.242.293.683.683,0,0,1,.064.226c.008.057.005.087.015.087s.026-.026.041-.082a.462.462,0,0,0,0-.262.758.758,0,0,0-.234-.373A.95.95,0,0,0,70.691,77.272Z" transform="translate(-58.098 -71.127)" fill="#fff"/>
        </g>
      </g>
    </g>
  </g>
</svg>
