<svg xmlns="http://www.w3.org/2000/svg" width="49.882" height="36.294" viewBox="0 0 49.882 36.294">
  <g id="Ikona_biodinamiska" data-name="Ikona biodinamiska" transform="translate(-189.693 -65.516)">
    <rect id="Rectangle_423" data-name="Rectangle 423" width="6.292" height="11.084" transform="translate(213.74 74.362)" fill="none"/>
    <path id="Path_22337" data-name="Path 22337" d="M213.773,73.083h6.769a.62.62,0,0,1,.155-.025.66.66,0,0,1,.1.025h6.766a6.925,6.925,0,0,0-13.792,0Z" fill="none"/>
    <rect id="Rectangle_424" data-name="Rectangle 424" width="6.286" height="11.084" transform="translate(221.311 74.362)" fill="none"/>
    <path id="Path_22338" data-name="Path 22338" d="M234.864,67.339a11.525,11.525,0,0,0,0,14.165A11.522,11.522,0,0,0,234.864,67.339Z" fill="none"/>
    <rect id="Rectangle_425" data-name="Rectangle 425" width="5.838" height="11.084" transform="translate(199.516 74.362)" fill="none"/>
    <rect id="Rectangle_426" data-name="Rectangle 426" width="5.832" height="11.084" transform="translate(206.632 74.362)" fill="none"/>
    <rect id="Rectangle_427" data-name="Rectangle 427" width="5.841" height="11.084" transform="translate(192.397 74.362)" fill="none"/>
    <path id="Path_22339" data-name="Path 22339" d="M206.665,73.083H212.5a8.191,8.191,0,0,1,3.786-6.288H213.56A6.936,6.936,0,0,0,206.665,73.083Z" fill="none"/>
    <path id="Path_22340" data-name="Path 22340" d="M199.549,73.083h5.838a8.2,8.2,0,0,1,3.8-6.288h-2.738A6.936,6.936,0,0,0,199.549,73.083Z" fill="none"/>
    <path id="Path_22341" data-name="Path 22341" d="M198.271,73.083a8.2,8.2,0,0,1,3.795-6.288h-2.741a6.935,6.935,0,0,0-6.9,6.288Z" fill="none"/>
    <g id="Group_946" data-name="Group 946">
      <path id="Path_22342" data-name="Path 22342" d="M202.066,66.795h-2.741a6.935,6.935,0,0,0-6.9,6.288h5.841A8.2,8.2,0,0,1,202.066,66.795Z" fill="none"/>
      <rect id="Rectangle_428" data-name="Rectangle 428" width="5.838" height="11.084" transform="translate(199.516 74.362)" fill="none"/>
      <rect id="Rectangle_429" data-name="Rectangle 429" width="5.832" height="11.084" transform="translate(206.632 74.362)" fill="none"/>
      <rect id="Rectangle_430" data-name="Rectangle 430" width="5.841" height="11.084" transform="translate(192.397 74.362)" fill="none"/>
      <path id="Path_22343" data-name="Path 22343" d="M234.864,67.339a11.525,11.525,0,0,0,0,14.165A11.522,11.522,0,0,0,234.864,67.339Z" fill="none"/>
      <path id="Path_22344" data-name="Path 22344" d="M209.182,66.795h-2.738a6.936,6.936,0,0,0-6.9,6.288h5.838A8.2,8.2,0,0,1,209.182,66.795Z" fill="none"/>
      <rect id="Rectangle_431" data-name="Rectangle 431" width="6.286" height="11.084" transform="translate(221.311 74.362)" fill="none"/>
      <path id="Path_22345" data-name="Path 22345" d="M220.669,66.8a6.926,6.926,0,0,0-6.9,6.287h6.769a.62.62,0,0,1,.155-.025.66.66,0,0,1,.1.025h6.766A6.926,6.926,0,0,0,220.669,66.8Z" fill="none"/>
      <rect id="Rectangle_432" data-name="Rectangle 432" width="6.292" height="11.084" transform="translate(213.74 74.362)" fill="none"/>
      <path id="Path_22346" data-name="Path 22346" d="M216.283,66.795H213.56a6.936,6.936,0,0,0-6.9,6.288H212.5A8.191,8.191,0,0,1,216.283,66.795Z" fill="none"/>
      <path id="Path_22347" data-name="Path 22347" d="M238.96,100.53H213.2c.177-.61.367-1.2.578-1.761h25.128a.64.64,0,0,0,.051-1.279H214.294q.415-.928.883-1.762H238.91a.64.64,0,0,0,.051-1.279H215.966a20.625,20.625,0,0,1,1.286-1.761h21.657a.64.64,0,0,0,.051-1.279H218.4a20.623,20.623,0,0,1,1.946-1.762h18.56a.64.64,0,0,0,0-1.279H222.174a16.293,16.293,0,0,1,3.352-1.643H238.9a.64.64,0,0,0,0-1.279h-3.4V82.633c1.894-1.717,3.066-4.816,3.066-8.21,0-3.54-1.267-6.776-3.307-8.44a.64.64,0,0,0-.807,0c-2.04,1.664-3.307,4.9-3.307,8.44,0,3.4,1.177,6.5,3.076,8.22v2.8h-5.349V73.854a.548.548,0,0,0,.026-.106.64.64,0,0,0-.036-.223,8.2,8.2,0,0,0-8.135-8.006l-.011,0h-21.4a8.218,8.218,0,0,0-8.206,8.206V85.446h-.764a.64.64,0,0,0,0,1.279h19.864a20.877,20.877,0,0,0-2.524,1.643H190.359a.64.64,0,0,0,0,1.279H206.15a21.558,21.558,0,0,0-1.695,1.762h-14.1a.64.64,0,1,0-.05,1.279h13.124c-.406.548-.8,1.133-1.176,1.761h-11.9a.64.64,0,0,0,0,1.279h11.189q-.432.839-.817,1.762H190.359a.64.64,0,1,0-.05,1.279h9.911c-.2.559-.367,1.157-.532,1.761h-9.329a.64.64,0,1,0-.05,1.279h9.68a.632.632,0,0,0,.076-.012.547.547,0,0,0,.1.012.641.641,0,0,0,.619-.481c2.847-11.2,11.775-14.345,12.567-14.6h2.962a21.92,21.92,0,0,0-10.678,14.288.638.638,0,0,0,.461.776h0a.566.566,0,0,0,.158.02.64.64,0,0,0,.619-.481c2.853-11.232,11.769-14.345,12.565-14.6H222.4a21.14,21.14,0,0,0-5.9,4.838.656.656,0,0,0-.085.1,23.176,23.176,0,0,0-4.645,9.19.612.612,0,0,0,.387.927c.009,0,.016.01.025.012h0a.446.446,0,0,0,.051.007c.019,0,.036.012.056.013h26.618a.64.64,0,1,0,.051-1.279Zm-4.1-33.191a11.522,11.522,0,0,1,0,14.165A11.525,11.525,0,0,1,234.864,67.339ZM198.238,85.446H192.4V74.362h5.841Zm.033-12.363H192.43a6.935,6.935,0,0,1,6.9-6.288h2.741A8.2,8.2,0,0,0,198.271,73.083Zm7.083,12.363h-5.838V74.362h5.838Zm-5.805-12.363a6.936,6.936,0,0,1,6.9-6.288h2.738a8.2,8.2,0,0,0-3.8,6.288Zm12.915,12.363h-5.832V74.362h5.832Zm.033-12.363h-5.832a6.936,6.936,0,0,1,6.9-6.288h2.723A8.191,8.191,0,0,0,212.5,73.083Zm7.535,12.363H213.74V74.362h6.292Zm.665-12.388a.62.62,0,0,0-.155.025h-6.769a6.925,6.925,0,0,1,13.792,0H220.8A.66.66,0,0,0,220.7,73.058Zm.614,12.388V74.362H227.6V85.446Z" fill="#819467"/>
    </g>
  </g>
</svg>
