<svg xmlns="http://www.w3.org/2000/svg" width="48.951" height="46.63" viewBox="0 0 48.951 46.63">
  <g id="Ikona_lauki" data-name="Ikona lauki" transform="translate(-258.284 -14.258)">
    <path id="Path_21497" data-name="Path 21497" d="M267.306,54.862h-7.794a.688.688,0,1,1,0-1.376h7.363l12.756-26.272a.687.687,0,0,1,1.237.6l-12.944,26.66A.689.689,0,0,1,267.306,54.862Z" transform="translate(0.259 6.026)" fill="#8fa57b"/>
    <path id="Path_21498" data-name="Path 21498" d="M268.3,54.862a.688.688,0,0,1-.618-.988l12.944-26.66a.687.687,0,1,1,1.237.6L268.918,54.473A.686.686,0,0,1,268.3,54.862Z" transform="translate(4.473 6.026)" fill="#8fa57b"/>
    <path id="Path_21499" data-name="Path 21499" d="M271.819,54.861a.688.688,0,0,1-.618-.988l12.944-26.658a.687.687,0,0,1,1.237.6l-12.944,26.66A.687.687,0,0,1,271.819,54.861Z" transform="translate(6.16 6.026)" fill="#8fa57b"/>
    <path id="Path_21500" data-name="Path 21500" d="M275.339,54.861a.688.688,0,0,1-.618-.988l12.944-26.658a.687.687,0,1,1,1.237.6l-12.944,26.66A.687.687,0,0,1,275.339,54.861Z" transform="translate(7.847 6.026)" fill="#8fa57b"/>
    <path id="Path_21501" data-name="Path 21501" d="M278.858,54.862a.675.675,0,0,1-.3-.07.687.687,0,0,1-.318-.919l12.944-26.66a.687.687,0,1,1,1.237.6L279.478,54.473A.688.688,0,0,1,278.858,54.862Z" transform="translate(9.536 6.026)" fill="#8fa57b"/>
    <path id="Path_21502" data-name="Path 21502" d="M306.545,54.862H293.6a.687.687,0,0,1-.618-.988L305.448,28.2H258.972a.688.688,0,1,1,0-1.376h47.575a.687.687,0,0,1,.618.988L294.7,53.486h11.846a.688.688,0,1,1,0,1.376Z" transform="translate(0 6.026)" fill="#8fa57b"/>
    <path id="Path_21503" data-name="Path 21503" d="M278.344,30.776H259.512a.688.688,0,1,1,0-1.376h18.832a.688.688,0,1,1,0,1.376Z" transform="translate(0.259 7.26)" fill="#8fa57b"/>
    <path id="Path_21504" data-name="Path 21504" d="M276.487,33.351H259.512a.688.688,0,1,1,0-1.376h16.975a.688.688,0,1,1,0,1.376Z" transform="translate(0.259 8.495)" fill="#8fa57b"/>
    <path id="Path_21505" data-name="Path 21505" d="M274.684,35.925H259.512a.688.688,0,1,1,0-1.376h15.172a.688.688,0,1,1,0,1.376Z" transform="translate(0.259 9.729)" fill="#8fa57b"/>
    <path id="Path_21506" data-name="Path 21506" d="M271.926,38.5H259.513a.688.688,0,0,1,0-1.376h12.413a.688.688,0,0,1,0,1.376Z" transform="translate(0.259 10.963)" fill="#8fa57b"/>
    <path id="Path_21507" data-name="Path 21507" d="M270.864,41.073H259.512a.688.688,0,1,1,0-1.376h11.352a.688.688,0,0,1,0,1.376Z" transform="translate(0.259 12.197)" fill="#8fa57b"/>
    <path id="Path_21508" data-name="Path 21508" d="M269.034,43.648h-9.522a.688.688,0,1,1,0-1.376h9.522a.688.688,0,0,1,0,1.376Z" transform="translate(0.259 13.432)" fill="#8fa57b"/>
    <path id="Path_21509" data-name="Path 21509" d="M271.47,19.48a.688.688,0,0,1-.688-.688V14.946a.688.688,0,1,1,1.376,0v3.847A.688.688,0,0,1,271.47,19.48Z" transform="translate(5.992)" fill="#8fa57b"/>
    <path id="Path_21510" data-name="Path 21510" d="M274.413,19.924a.688.688,0,0,1-.647-.923l1.315-3.614a.687.687,0,0,1,1.292.469l-1.315,3.614A.684.684,0,0,1,274.413,19.924Z" transform="translate(7.403 0.324)" fill="#8fa57b"/>
    <path id="Path_21511" data-name="Path 21511" d="M277,21.2a.687.687,0,0,1-.525-1.129l2.472-2.946A.687.687,0,1,1,280,18.01l-2.472,2.946A.68.68,0,0,1,277,21.2Z" transform="translate(8.645 1.258)" fill="#8fa57b"/>
    <path id="Path_21512" data-name="Path 21512" d="M278.923,23.16a.687.687,0,0,1-.345-1.283l3.33-1.923a.688.688,0,1,1,.688,1.191l-3.33,1.923A.687.687,0,0,1,278.923,23.16Z" transform="translate(9.566 2.687)" fill="#8fa57b"/>
    <path id="Path_21513" data-name="Path 21513" d="M264.223,25.561a.655.655,0,0,1-.12-.01l-3.787-.667a.687.687,0,0,1,.238-1.354l3.787.667a.687.687,0,0,1-.118,1.364Z" transform="translate(0.702 4.44)" fill="#8fa57b"/>
    <path id="Path_21514" data-name="Path 21514" d="M265.1,23.16a.687.687,0,0,1-.343-.092l-3.33-1.923a.688.688,0,1,1,.688-1.191l3.33,1.923a.687.687,0,0,1-.345,1.283Z" transform="translate(1.34 2.687)" fill="#8fa57b"/>
    <path id="Path_21515" data-name="Path 21515" d="M266.74,21.2a.685.685,0,0,1-.527-.246l-2.472-2.946a.687.687,0,1,1,1.052-.883l2.472,2.946a.687.687,0,0,1-.084.968A.677.677,0,0,1,266.74,21.2Z" transform="translate(2.539 1.258)" fill="#8fa57b"/>
    <path id="Path_21516" data-name="Path 21516" d="M268.953,19.924a.688.688,0,0,1-.647-.453l-1.315-3.614a.687.687,0,0,1,1.292-.469L269.6,19a.687.687,0,0,1-.411.882A.712.712,0,0,1,268.953,19.924Z" transform="translate(4.155 0.324)" fill="#8fa57b"/>
    <path id="Path_21517" data-name="Path 21517" d="M284.327,32.052H265.008a.689.689,0,0,1-.673-.547,10.554,10.554,0,1,1,20.665,0A.688.688,0,0,1,284.327,32.052Zm-18.742-1.374h18.166a9.181,9.181,0,1,0-18.166,0Z" transform="translate(2.795 2.175)" fill="#8fa57b"/>
    <path id="Path_21518" data-name="Path 21518" d="M283.031,29.84h-3.086a.687.687,0,0,1-.686-.7,12.9,12.9,0,0,1,1.636-5.388.687.687,0,0,1,1.19,0,12.885,12.885,0,0,1,1.635,5.388.687.687,0,0,1-.688.7Zm-2.348-1.374h1.608a11.011,11.011,0,0,0-.8-2.792A10.988,10.988,0,0,0,280.683,28.465Z" transform="translate(10.056 4.388)" fill="#8fa57b"/>
    <path id="Path_21519" data-name="Path 21519" d="M285.59,29.832h-3.085a.687.687,0,0,1-.686-.7,12.885,12.885,0,0,1,1.635-5.388.715.715,0,0,1,1.189,0,12.893,12.893,0,0,1,1.635,5.388.687.687,0,0,1-.688.7Zm-2.348-1.374h1.608a10.939,10.939,0,0,0-.8-2.795A11.035,11.035,0,0,0,283.242,28.457Z" transform="translate(11.284 4.396)" fill="#8fa57b"/>
    <path id="Path_21520" data-name="Path 21520" d="M288.151,29.832h-3.086a.687.687,0,0,1-.686-.7,12.909,12.909,0,0,1,1.635-5.388.715.715,0,0,1,1.189,0,12.9,12.9,0,0,1,1.636,5.388.687.687,0,0,1-.688.7ZM285.8,28.457h1.608a10.936,10.936,0,0,0-.8-2.792A10.95,10.95,0,0,0,285.8,28.457Z" transform="translate(12.511 4.396)" fill="#8fa57b"/>
    <path id="Path_21521" data-name="Path 21521" d="M290.71,29.832h-3.085a.687.687,0,0,1-.686-.7,12.885,12.885,0,0,1,1.635-5.388.715.715,0,0,1,1.189,0,12.894,12.894,0,0,1,1.635,5.388.687.687,0,0,1-.688.7Zm-2.346-1.374h1.608a10.942,10.942,0,0,0-.8-2.795A10.97,10.97,0,0,0,288.364,28.457Z" transform="translate(13.739 4.396)" fill="#8fa57b"/>
    <path id="Path_21522" data-name="Path 21522" d="M294.723,43.648H283.629a.688.688,0,1,1,0-1.376h11.094a.688.688,0,1,1,0,1.376Z" transform="translate(11.822 13.432)" fill="#8fa57b"/>
    <path id="Path_21523" data-name="Path 21523" d="M294.088,41.073h-9.133a.688.688,0,1,1,0-1.376h9.133a.688.688,0,1,1,0,1.376Z" transform="translate(12.458 12.197)" fill="#8fa57b"/>
    <path id="Path_21524" data-name="Path 21524" d="M293.467,38.5h-7.218a.688.688,0,0,1,0-1.376h7.218a.688.688,0,1,1,0,1.376Z" transform="translate(13.078 10.963)" fill="#8fa57b"/>
    <path id="Path_21525" data-name="Path 21525" d="M292.926,35.925h-5.548a.688.688,0,1,1,0-1.376h5.548a.688.688,0,0,1,0,1.376Z" transform="translate(13.62 9.729)" fill="#8fa57b"/>
    <path id="Path_21526" data-name="Path 21526" d="M292.327,33.351h-3.7a.688.688,0,0,1,0-1.376h3.7a.688.688,0,1,1,0,1.376Z" transform="translate(14.219 8.495)" fill="#8fa57b"/>
    <path id="Path_21527" data-name="Path 21527" d="M291.727,30.776h-1.849a.688.688,0,1,1,0-1.376h1.849a.688.688,0,0,1,0,1.376Z" transform="translate(14.818 7.26)" fill="#8fa57b"/>
  </g>
</svg>
