<svg xmlns="http://www.w3.org/2000/svg" width="43.857" height="42.383" viewBox="0 0 43.857 42.383">
  <g id="Ikona_rokas" data-name="Ikona rokas" transform="translate(0.614 0.66)">
    <g id="Group_114" data-name="Group 114" transform="translate(11.767)">
      <g id="Group_113" data-name="Group 113">
        <path id="Path_18903" data-name="Path 18903" d="M4062.08,451.822c11.841-1.425,17.86,10.591,11.7,14.465-2.708,1.7-6.666.328-8.466-2.953C4063.14,459.375,4064.8,454.564,4062.08,451.822Z" transform="translate(-4062.079 -451.705)" fill="none" stroke="#8fa57b" stroke-linecap="round" stroke-linejoin="round" stroke-miterlimit="10" stroke-width="1.2"/>
        <path id="Path_18904" data-name="Path 18904" d="M4076.38,476.47s-.713-18.416-14.31-23.69" transform="translate(-4062.07 -452.663)" fill="none" stroke="#8fa57b" stroke-linecap="round" stroke-linejoin="round" stroke-miterlimit="10" stroke-width="1.2"/>
        <path id="Path_18905" data-name="Path 18905" d="M4216.6,511.36c-7.208-4.922-15.171.85-12.479,5.446,1.184,2.019,4.219,2.462,6.494.94C4213.363,515.907,4213.906,512.223,4216.6,511.36Z" transform="translate(-4188.212 -503.203)" fill="none" stroke="#8fa57b" stroke-linecap="round" stroke-linejoin="round" stroke-miterlimit="10" stroke-width="1.2"/>
        <path id="Path_18906" data-name="Path 18906" d="M4206.62,526.726c-9.919-.342-14.869,9.127-14.235,14.393" transform="translate(-4178.181 -518.569)" fill="none" stroke="#8fa57b" stroke-linecap="round" stroke-linejoin="round" stroke-miterlimit="10" stroke-width="1.2"/>
        <path id="Path_18907" data-name="Path 18907" d="M4166.66,671.631a2.2,2.2,0,0,1,.686-.386,5.194,5.194,0,0,1,1.018-.26,8.17,8.17,0,0,1,2.492,0,5.316,5.316,0,0,1,1.018.26,2.191,2.191,0,0,1,.685.386" transform="translate(-4155.299 -647.081)" fill="none" stroke="#8fa57b" stroke-linecap="round" stroke-linejoin="round" stroke-miterlimit="10" stroke-width="1.2"/>
      </g>
    </g>
    <g id="Group_117" data-name="Group 117" transform="translate(0 24.514)">
      <g id="Group_116" data-name="Group 116">
        <g id="Group_115" data-name="Group 115" transform="translate(0 0.495)">
          <path id="Path_18908" data-name="Path 18908" d="M4219.388,681.95l-8.048,5.867a3.3,3.3,0,0,1-1.834.653l-.726.052" transform="translate(-4181.077 -681.95)" fill="none" stroke="#8fa57b" stroke-linecap="round" stroke-linejoin="round" stroke-miterlimit="10" stroke-width="1.2"/>
          <line id="Line_24" data-name="Line 24" x1="8.862" y1="2.847" transform="translate(15.175 6.536)" fill="#fff" stroke="#8fa57b" stroke-linecap="round" stroke-linejoin="round" stroke-miterlimit="10" stroke-width="1.2"/>
          <path id="Path_18909" data-name="Path 18909" d="M3995.524,686.316l-9.4,7.4a6.459,6.459,0,0,1-1.55.839l-9.2,2.883a9.721,9.721,0,0,1-5.551.387l-13.226-2.966a3.24,3.24,0,0,1-2.514-2.836l-.31-3.05c-.361-3.562,2.047-5.884,5.608-6.245l7.282-.739a6.48,6.48,0,0,1,3.036.42l9.942,3.375" transform="translate(-3953.739 -681.955)" fill="none" stroke="#8fa57b" stroke-linecap="round" stroke-linejoin="round" stroke-miterlimit="10" stroke-width="1.2"/>
        </g>
        <path id="Path_18910" data-name="Path 18910" d="M4309.914,682.247a2.725,2.725,0,0,0,0-3.967,2.607,2.607,0,0,0-3.477-.394" transform="translate(-4268.129 -677.391)" fill="none" stroke="#8fa57b" stroke-linecap="round" stroke-linejoin="round" stroke-miterlimit="10" stroke-width="1.2"/>
      </g>
      <path id="Path_18911" data-name="Path 18911" d="M4176.889,717.19a3.125,3.125,0,0,1,1.567,3.847,2.938,2.938,0,0,1-3.436,1.706" transform="translate(-4150.985 -712.867)" fill="none" stroke="#8fa57b" stroke-linecap="round" stroke-linejoin="round" stroke-miterlimit="10" stroke-width="1.2"/>
    </g>
    <path id="Path_18912" data-name="Path 18912" d="M4084.04,645.149l5.852-3.159a11.894,11.894,0,0,1,12.244.721l4.783,3.344" transform="translate(-4069.887 -620.113)" fill="none" stroke="#8fa57b" stroke-linecap="round" stroke-linejoin="round" stroke-miterlimit="10" stroke-width="1.2"/>
  </g>
</svg>
