<svg xmlns="http://www.w3.org/2000/svg" width="34.922" height="46.718" viewBox="0 0 34.922 46.718">
  <g id="Ikona_pieredze" data-name="Ikona pieredze" transform="translate(-334.119 -43.024)">
    <path id="Path_22351" data-name="Path 22351" d="M358.5,47.34a3.6,3.6,0,0,0-3.562-3.03h-.261a3.636,3.636,0,0,1-6.2,0h-.261a3.6,3.6,0,0,0-3.562,3.03l-.349,2.142h14.543Z" fill="none"/>
    <path id="Path_22352" data-name="Path 22352" d="M359.056,50.765H344.1l-.113.687h15.184Z" fill="none"/>
    <path id="Path_22353" data-name="Path 22353" d="M338.623,62.584a2.745,2.745,0,0,0,2.148,2.948v-5.9A2.745,2.745,0,0,0,338.623,62.584Z" fill="none"/>
    <path id="Path_22354" data-name="Path 22354" d="M354.15,76.222c-.25.062-.5.114-.76.158-.052.009-.105.016-.158.024a9.712,9.712,0,0,1-3.292,0c-.064-.01-.127-.018-.191-.029-.245-.042-.487-.093-.727-.151l-.17-.044c-.252-.066-.5-.137-.745-.22l-.012,0v3.6h6.962v-3.6c-.258.088-.52.164-.786.232Z" fill="none"/>
    <path id="Path_22355" data-name="Path 22355" d="M367.749,55.461a.616.616,0,0,0-.616-.616h-6.868a.639.639,0,0,1-.632-.538l-.256-1.573h-15.6l-.135.828h12.9a.642.642,0,0,1,0,1.283H336.019a.616.616,0,0,0,0,1.232h31.114A.616.616,0,0,0,367.749,55.461Z" fill="none"/>
    <path id="Path_22356" data-name="Path 22356" d="M342.053,65.74a9.52,9.52,0,0,0,5.66,8.7h0a9.521,9.521,0,0,0,7.723,0l.009,0a9.522,9.522,0,0,0,5.656-8.7v-6.69h0V57.359H342.053Z" fill="none"/>
    <path id="Path_22357" data-name="Path 22357" d="M362.386,65.535a3.1,3.1,0,0,0,0-5.9Z" fill="none"/>
    <path id="Path_22358" data-name="Path 22358" d="M344.029,85.564a.641.641,0,0,0-.666.616v2.894a.641.641,0,0,0,1.283,0V86.18A.642.642,0,0,0,344.029,85.564Z" fill="#819467"/>
    <path id="Path_22359" data-name="Path 22359" d="M359.173,85.564a.642.642,0,0,0-.666.616v2.894a.642.642,0,0,0,1.283,0V86.18A.643.643,0,0,0,359.173,85.564Z" fill="#819467"/>
    <path id="Path_22360" data-name="Path 22360" d="M367.134,57.359h.008a1.9,1.9,0,0,0,0-3.8h-6.323L359.77,47.13a4.87,4.87,0,0,0-4.827-4.106h-.79a.64.64,0,0,0-.64.642c0,.517-.793,1.094-1.932,1.094s-1.932-.577-1.932-1.094v0a.641.641,0,0,0-.642-.64h-.788a4.873,4.873,0,0,0-4.827,4.106l-.471,2.882,0,.008-.32,1.969h0l-.256,1.569h-6.326a1.9,1.9,0,0,0,0,3.8h4.751v1.006a3.974,3.974,0,0,0-3.43,4.22c0,2.3,1.555,4.167,3.485,4.225a10.814,10.814,0,0,0,5.987,8.613v4.139h-5.355a6.068,6.068,0,0,0-6.061,6.061v3.451a.414.414,0,0,0,0,.05.642.642,0,1,0,1.283-.05V85.623a4.785,4.785,0,0,1,4.779-4.779h20.234a4.785,4.785,0,0,1,4.779,4.779v3.452a.641.641,0,0,0,.642.64h.006a.637.637,0,0,0,.633-.641V85.623a6.069,6.069,0,0,0-6.061-6.061h-5.356V75.427a10.815,10.815,0,0,0,5.994-8.617c1.928-.06,3.482-1.926,3.482-4.225a3.975,3.975,0,0,0-3.426-4.219V57.359Zm-26.363,8.173a3.1,3.1,0,0,1,0-5.9Zm3.882-18.192a3.6,3.6,0,0,1,3.562-3.03h.261a3.636,3.636,0,0,0,6.2,0h.261a3.6,3.6,0,0,1,3.562,3.03l.348,2.142H344.3Zm-.556,3.425h14.959l.112.687H343.984Zm10.96,28.794H348.1v-3.6l.012,0c.245.083.493.154.745.22l.17.044c.24.058.482.109.727.151.064.011.127.019.191.029a9.712,9.712,0,0,0,3.292,0c.053-.008.106-.015.158-.024.257-.044.51-.1.76-.158l.121-.031c.266-.068.528-.144.786-.232ZM361.1,59.05h0v6.69a9.522,9.522,0,0,1-5.656,8.7l-.009,0a9.521,9.521,0,0,1-7.723,0h0a9.52,9.52,0,0,1-5.66-8.7V57.359H361.1Zm3.43,3.538a2.746,2.746,0,0,1-2.145,2.947v-5.9A2.746,2.746,0,0,1,364.531,62.588Zm-28.512-6.511a.616.616,0,0,1,0-1.232h20.518a.642.642,0,0,0,0-1.283h-12.9l.135-.828h15.6l.256,1.573a.639.639,0,0,0,.632.538h6.868a.616.616,0,0,1,0,1.232Z" fill="#819467"/>
  </g>
</svg>
