<svg xmlns="http://www.w3.org/2000/svg" width="45.492" height="41.523" viewBox="0 0 45.492 41.523">
  <g id="Ikona_produkti" data-name="Ikona produkti" transform="translate(-808.492 -3938.5)">
    <g id="Group_942" data-name="Group 942" transform="translate(809 3939)">
      <path id="Path_22319" data-name="Path 22319" d="M317.518,159.787q.361.245.688.518c-.085-.307-.186-.6-.283-.9A1.28,1.28,0,0,1,317.518,159.787Z" transform="translate(-279.081 -146.584)" fill="none" stroke="#93a47f" stroke-width="1"/>
      <path id="Path_22320" data-name="Path 22320" d="M297.928,146.949A14.5,14.5,0,0,1,305.381,149a1.3,1.3,0,0,1,0-.188,1.272,1.272,0,0,1,1.3-1.065,15.946,15.946,0,0,0-8.752-2.628c-7.718,0-14.269,5.475-16.562,13.665.473.189.984.388,1.528.586C284.962,151.894,290.906,146.949,297.928,146.949Z" transform="translate(-275.379 -145.122)" fill="none" stroke="#93a47f" stroke-width="1"/>
      <path id="Path_22321" data-name="Path 22321" d="M307.764,155.45a1.255,1.255,0,0,1,.62-.884.159.159,0,0,0,.048-.039.163.163,0,0,0-.019-.23,1.275,1.275,0,0,1-.349-1.379c.03-.079.158-.159.108-.223-.215-.278-.718.065-1.06-.157a1.276,1.276,0,0,1-.423-1.665.351.351,0,0,0,.022-.058.284.284,0,0,0-.2-.346,1.051,1.051,0,0,1-.128-.038,1.264,1.264,0,0,1-.826-1.219,14.5,14.5,0,0,0-7.454-2.054c-7.021,0-12.966,4.945-15.036,12.425a21.891,21.891,0,0,0,11.169,1.3,4.108,4.108,0,0,1,1.069-3.137l-.268.156a6.4,6.4,0,0,1-5.448-2.347.146.146,0,0,1,.137-.237,23.024,23.024,0,0,0,3.811.394.141.141,0,0,0,.14-.143.145.145,0,0,0-.022-.074,19.677,19.677,0,0,1-2.1-4.6.043.043,0,0,1,.03-.053.037.037,0,0,1,.024,0c.5.169,3.322,1.208,4.309,3.358a.084.084,0,0,0,.111.039.085.085,0,0,0,.048-.072,4.915,4.915,0,0,1,1.805-3.853.162.162,0,0,1,.227.035.155.155,0,0,1,.026.055,12.987,12.987,0,0,1,.132,5.61l-.192.112a3.637,3.637,0,0,1,4.373,2.061l.585,1.635a5.864,5.864,0,0,1,5.505-2.976,1.266,1.266,0,0,1-.167-.075A1.283,1.283,0,0,1,307.764,155.45Z" transform="translate(-275.553 -145.33)" fill="none" stroke="#93a47f" stroke-width="1"/>
      <path id="Path_22322" data-name="Path 22322" d="M312.376,157.987c.046,0,.091.006.136.012-.008-.014-.021-.027-.029-.041C312.449,157.971,312.412,157.976,312.376,157.987Z" transform="translate(-278.555 -146.436)" fill="none" stroke="#93a47f" stroke-width="1"/>
      <path id="Path_22323" data-name="Path 22323" d="M315.58,159.817a1.261,1.261,0,0,1-.978-.529,4.442,4.442,0,0,1-1.521.467,1.142,1.142,0,0,1-.7-.508.73.73,0,0,1-.088-.562,4.416,4.416,0,0,1-.506-.688c-.046-.005-.091-.007-.136-.012a1.247,1.247,0,0,1-.833-.039,5.864,5.864,0,0,0-5.505,2.976l2.025,5.652h11.573c.021-.057.051-.106.07-.163a5.617,5.617,0,0,0-2.026-6.255q-.327-.273-.688-.518A1.284,1.284,0,0,1,315.58,159.817Z" transform="translate(-277.832 -146.435)" fill="none" stroke="#93a47f" stroke-width="1"/>
      <path id="Path_22324" data-name="Path 22324" d="M308.118,149.114a1.308,1.308,0,0,0,0,.188,1.264,1.264,0,0,0,.826,1.219,1.048,1.048,0,0,0,.128.038.284.284,0,0,1,.2.346.352.352,0,0,1-.022.058,1.276,1.276,0,0,0,.423,1.665c.342.222.845-.121,1.06.157.05.065-.078.145-.108.223a1.275,1.275,0,0,0,.349,1.379.163.163,0,0,1,.019.23.159.159,0,0,1-.048.04,1.256,1.256,0,0,0-.62.884,1.284,1.284,0,0,0,.611,1.317,1.268,1.268,0,0,0,.167.074,1.247,1.247,0,0,0,.833.04c.036-.011.073-.015.108-.03.008.014.021.027.029.041a4.416,4.416,0,0,0,.506.688,1.906,1.906,0,0,1,.32-.69.933.933,0,0,0,.144-.8,1.249,1.249,0,0,1-.009-.658,1.268,1.268,0,0,1,.916-.942.269.269,0,0,0,.2-.3,1.238,1.238,0,0,1,.02-.46,1.273,1.273,0,0,1,.945-.949,1.274,1.274,0,0,0-.81-.916c-.062-.022-.165.013-.188-.047-.041-.105.123-.19.162-.3a1.276,1.276,0,0,0-.769-1.632h0c-.138-.05-.344.047-.419-.07-.014-.022.024-.045.032-.069a1.276,1.276,0,0,0-.769-1.632c-.621-.224-1.113-.214-1.391.369a13.5,13.5,0,0,0-1.381-.514,1.29,1.29,0,0,0-.166-.01A1.272,1.272,0,0,0,308.118,149.114Z" transform="translate(-278.118 -145.422)" fill="none" stroke="#93a47f" stroke-width="1"/>
      <path id="Path_22325" data-name="Path 22325" d="M322.274,152.444a13.8,13.8,0,0,0-1.436-.314c.079-.642-.329-.915-.971-1.064a1.278,1.278,0,0,0-1.531.958c-.01.025.013.065-.01.075-.128.057-.246-.136-.39-.169a1.277,1.277,0,0,0-1.526.958c-.026.114.064.276-.026.341-.048.038-.115-.047-.18-.062a1.292,1.292,0,0,0-1.526.958,1.238,1.238,0,0,0-.02.46.269.269,0,0,1-.2.3,1.268,1.268,0,0,0-.916.942,1.25,1.25,0,0,0,.009.658.932.932,0,0,1-.144.8,1.907,1.907,0,0,0-.32.69.73.73,0,0,0,.088.562,1.142,1.142,0,0,0,.7.508,4.442,4.442,0,0,0,1.521-.467,1.26,1.26,0,0,0,.977.529,1.269,1.269,0,0,0,1.094-.565,1.3,1.3,0,0,0,.133-.213,1.255,1.255,0,0,0-.044-1.077.172.172,0,0,1-.019-.055.165.165,0,0,1,.139-.187,1.273,1.273,0,0,0,1.038-.97c.019-.083-.045-.219.031-.246.331-.118.568.441.976.441a1.278,1.278,0,0,0,1.1-.649,1.257,1.257,0,0,0,.161-.524.324.324,0,0,1,.013-.06.285.285,0,0,1,.359-.182c.042.014.084.027.127.037a1.277,1.277,0,0,0,.8-2.415Z" transform="translate(-278.626 -145.727)" fill="none" stroke="#93a47f" stroke-width="1"/>
      <path id="Path_22326" data-name="Path 22326" d="M297.267,157.076a5.041,5.041,0,0,1,1.552-.6l.192-.112a12.987,12.987,0,0,0-.132-5.61.155.155,0,0,0-.026-.055.162.162,0,0,0-.227-.035,4.915,4.915,0,0,0-1.805,3.853.085.085,0,0,1-.048.072.084.084,0,0,1-.111-.039c-.986-2.15-3.81-3.189-4.309-3.358a.037.037,0,0,0-.024,0,.043.043,0,0,0-.03.053,19.678,19.678,0,0,0,2.1,4.6.145.145,0,0,1,.022.074.141.141,0,0,1-.14.143,23.023,23.023,0,0,1-3.811-.394.146.146,0,0,0-.137.237,6.4,6.4,0,0,0,5.448,2.347l.268-.156A5.092,5.092,0,0,1,297.267,157.076Z" transform="translate(-276.294 -145.686)" fill="none" stroke="#93a47f" stroke-width="1"/>
      <path id="Path_22327" data-name="Path 22327" d="M299.35,157.132a5.041,5.041,0,0,0-1.552.6,5.093,5.093,0,0,0-1.223,1.023,4.108,4.108,0,0,0-1.069,3.137c.108-.017.213-.029.321-.047,3.428-.577,4.4,3.229,4.316,4.636h6.19l-2.025-5.652-.585-1.635A3.637,3.637,0,0,0,299.35,157.132Z" transform="translate(-276.825 -146.341)" fill="none" stroke="#93a47f" stroke-width="1"/>
      <path id="Path_22328" data-name="Path 22328" d="M298.216,166.75c.083-1.407-.888-5.213-4.316-4.636-.109.018-.214.03-.321.047a21.892,21.892,0,0,1-11.169-1.3c-.544-.2-1.055-.4-1.528-.586-.579-.232-1.1-.443-1.574-.618l-.957.326a.527.527,0,0,0-.347.608l.211,1.026a.18.18,0,0,1-.127.2l-1.032.262h0a.528.528,0,0,0-.378.644l.215.829a.157.157,0,0,1,.005.04.161.161,0,0,1-.028.072,10.745,10.745,0,0,0,2.8,3.081Z" transform="translate(-274.897 -146.61)" fill="none" stroke="#93a47f" stroke-width="1"/>
      <path id="Path_22329" data-name="Path 22329" d="M276.688,163.434l-.215-.829a.528.528,0,0,1,.378-.644h0l1.032-.262a.18.18,0,0,0,.127-.2l-.211-1.026a.527.527,0,0,1,.347-.608l.957-.326.193-.066a.175.175,0,0,0,.11-.22.169.169,0,0,0-.038-.064,1.872,1.872,0,0,0-2.879-.109,6.236,6.236,0,0,0-1.62,2.411c-.738,2.014,1.013,2.171,1.648,2.164a.163.163,0,0,0,.143-.106.161.161,0,0,0,.028-.072A.157.157,0,0,0,276.688,163.434Z" transform="translate(-274.696 -146.487)" fill="none" stroke="#93a47f" stroke-width="1"/>
      <path id="Path_22330" data-name="Path 22330" d="M304.481,167.559H277.39v3.873a16.578,16.578,0,0,0,16.645,16.51h7.091a16.578,16.578,0,0,0,16.644-16.51v-3.873h-13.29Z" transform="translate(-274.972 -147.419)" fill="none" stroke="#93a47f" stroke-width="1"/>
    </g>
  </g>
</svg>
