<svg xmlns="http://www.w3.org/2000/svg" width="51.322" height="37.496" viewBox="0 0 51.322 37.496">
  <g id="Ikona_mēslojums" data-name="Ikona mēslojums" transform="translate(-110.89 -17.362)">
    <path id="Path_21338" data-name="Path 21338" d="M136.7,37.266h-8.783a1.85,1.85,0,0,1-1.847-1.847V30.453a.689.689,0,1,1,1.378,0v4.966a.47.47,0,0,0,.47.47H136.7a.47.47,0,0,0,.47-.47V28.792a.47.47,0,0,0-.47-.47h-7.072a.689.689,0,0,1,0-1.378H136.7a1.848,1.848,0,0,1,1.846,1.847v6.626A1.849,1.849,0,0,1,136.7,37.266Z" transform="translate(7.307 4.613)" fill="#8fa57b"/>
    <path id="Path_21339" data-name="Path 21339" d="M143.24,40.49a.689.689,0,0,1-.689-.689V37.1a.686.686,0,0,1,.532-.67,7.61,7.61,0,0,0-.447-14.91.688.688,0,1,1,.231-1.357,8.988,8.988,0,0,1,1.061,17.467v1.324A10.263,10.263,0,1,0,131.65,25.673h1.358a8.985,8.985,0,0,1,5-5,.688.688,0,1,1,.513,1.277,7.612,7.612,0,0,0-4.38,4.631.69.69,0,0,1-.652.468H130.73a.69.69,0,0,1-.668-.856,11.638,11.638,0,1,1,13.3,14.285A.527.527,0,0,1,143.24,40.49Z" transform="translate(9.219 0.007)" fill="#8fa57b"/>
    <path id="Path_21340" data-name="Path 21340" d="M159.477,38.328H115.829a.689.689,0,1,1,0-1.378h43.648a.689.689,0,1,1,0,1.378Z" transform="translate(2.046 9.43)" fill="#8fa57b"/>
    <path id="Path_21341" data-name="Path 21341" d="M121.727,40.724h-4.306a.689.689,0,0,1,0-1.378h4.306a.689.689,0,1,1,0,1.378Z" transform="translate(2.812 10.583)" fill="#8fa57b"/>
    <path id="Path_21342" data-name="Path 21342" d="M130.943,40.724h-2.409a.689.689,0,0,1,0-1.378h2.409a.689.689,0,0,1,0,1.378Z" transform="translate(8.162 10.583)" fill="#8fa57b"/>
    <path id="Path_21343" data-name="Path 21343" d="M127.4,40.724h-3.249a.689.689,0,1,1,0-1.378H127.4a.689.689,0,1,1,0,1.378Z" transform="translate(6.05 10.583)" fill="#8fa57b"/>
    <path id="Path_21344" data-name="Path 21344" d="M122.737,40.724h-2.409a.689.689,0,1,1,0-1.378h2.409a.689.689,0,0,1,0,1.378Z" transform="translate(4.212 10.583)" fill="#8fa57b"/>
    <path id="Path_21345" data-name="Path 21345" d="M152.578,40.724H130.16a.689.689,0,0,1,0-1.378h22.418a.689.689,0,1,1,0,1.378Z" transform="translate(8.945 10.583)" fill="#8fa57b"/>
    <path id="Path_21346" data-name="Path 21346" d="M140.687,43.121H119.014a.689.689,0,0,1,0-1.378h21.673a.689.689,0,0,1,0,1.378Z" transform="translate(3.579 11.737)" fill="#8fa57b"/>
    <path id="Path_21347" data-name="Path 21347" d="M143.213,43.121H140.8a.689.689,0,0,1,0-1.378h2.409a.689.689,0,0,1,0,1.378Z" transform="translate(14.069 11.737)" fill="#8fa57b"/>
    <path id="Path_21348" data-name="Path 21348" d="M139.848,43.121h-2.733a.689.689,0,0,1,0-1.378h2.733a.689.689,0,0,1,0,1.378Z" transform="translate(12.293 11.737)" fill="#8fa57b"/>
    <path id="Path_21349" data-name="Path 21349" d="M136.053,43.121h-2.409a.689.689,0,0,1,0-1.378h2.409a.689.689,0,0,1,0,1.378Z" transform="translate(10.622 11.737)" fill="#8fa57b"/>
    <path id="Path_21350" data-name="Path 21350" d="M146.671,43.121h-4.24a.689.689,0,0,1,0-1.378h4.24a.689.689,0,1,1,0,1.378Z" transform="translate(14.852 11.737)" fill="#8fa57b"/>
    <path id="Path_21351" data-name="Path 21351" d="M111.579,31.21a.688.688,0,0,1-.689-.689V18.051a.688.688,0,0,1,.689-.689,6.924,6.924,0,1,1,0,13.848Zm.689-12.429v11.01a5.548,5.548,0,0,0,0-11.01Z" fill="#8fa57b"/>
    <path id="Path_21352" data-name="Path 21352" d="M124.914,35.111a.685.685,0,0,1-.479-.194l-4.823-4.675a.688.688,0,1,1,.958-.988l3.655,3.543V27.866l-7.579-5.173a6.932,6.932,0,0,1-.4,2.367l1.844,1.79a.688.688,0,1,1-.958.988l-2.175-2.11a.688.688,0,0,1-.151-.77,5.463,5.463,0,0,0,.3-3.53.688.688,0,0,1,1.056-.732l9.139,6.237a.689.689,0,0,1,.3.569v6.921a.69.69,0,0,1-.689.689Z" transform="translate(1.857 1.547)" fill="#8fa57b"/>
    <path id="Path_21353" data-name="Path 21353" d="M144.841,45.731H124.515a3.374,3.374,0,0,1-3.37-3.37V27.022a3.374,3.374,0,0,1,3.37-3.369h.5V22.261a.689.689,0,0,1,.689-.689h6.921a.689.689,0,0,1,.689.689v1.393h11.533a3.374,3.374,0,0,1,3.37,3.369v15.34A3.375,3.375,0,0,1,144.841,45.731Zm-20.326-20.7a1.994,1.994,0,0,0-1.992,1.992v15.34a1.994,1.994,0,0,0,1.992,1.992h20.328a2,2,0,0,0,1.994-1.992V27.022a2,2,0,0,0-1.994-1.992H132.621a.688.688,0,0,1-.689-.689V22.948h-5.545v1.393a.688.688,0,0,1-.689.689Z" transform="translate(4.937 2.027)" fill="#8fa57b"/>
    <path id="Path_21354" data-name="Path 21354" d="M131.554,23.6h-6.921a.689.689,0,0,1-.661-.495l-.582-1.992a.688.688,0,0,1,.661-.881h8.085a.688.688,0,0,1,.661.881l-.582,1.992A.689.689,0,0,1,131.554,23.6Zm-6.406-1.376h5.889l.181-.616h-6.25Z" transform="translate(6.004 1.379)" fill="#8fa57b"/>
    <path id="Path_21355" data-name="Path 21355" d="M130.636,24.354h-4.677a.689.689,0,0,1,0-1.378h4.677a.689.689,0,0,1,0,1.378Z" transform="translate(6.922 2.703)" fill="#8fa57b"/>
  </g>
</svg>
