<svg xmlns="http://www.w3.org/2000/svg" width="176.596" height="74.629" viewBox="0 0 176.596 74.629">
  <g id="Logo_tumšs" data-name="Logo tumšs" transform="translate(-3.426 -43.28)">
    <text id="At" transform="translate(3.426 92.754)" fill="#627258" font-size="59" font-family="HenriDidot, Henri Didot" style="isolation: isolate"><tspan x="0" y="0">At</tspan></text>
    <g id="bioloģiskā" transform="translate(7.426 94.909)" style="isolation: isolate">
      <text id="bioloģiskā_saimniecība" data-name="bioloģiskā saimniecība" transform="translate(0 18)" fill="#627258" font-size="17" font-family="Manrope-Light, Manrope" font-weight="300" style="isolation: isolate"><tspan x="0" y="0">bioloģiskā saimniecība</tspan></text>
    </g>
    <g id="Group_922" data-name="Group 922" transform="translate(59.506 43.28)">
      <g id="Group_920" data-name="Group 920">
        <g id="Group_919" data-name="Group 919">
          <g id="Group_918" data-name="Group 918">
            <g id="Group_911" data-name="Group 911" transform="translate(10.832 11.273)">
              <path id="Path_22265" data-name="Path 22265" d="M57.585,85.85l-.509-1.133a36.3,36.3,0,0,1,.873-7.038,33.889,33.889,0,0,1,1.058-3.751c.555-1.613,1.286-3.2,2.828-6.552a23.476,23.476,0,0,0,1.883-10.182,26.409,26.409,0,0,0-.554-4.928l.8-.208a27.049,27.049,0,0,1,.58,5.114,24.471,24.471,0,0,1-1.97,10.64C59.155,75.241,57.337,81.815,57.585,85.85Z" transform="translate(-57.076 -52.058)" fill="#627258" stroke="#565f48" stroke-width="0.029"/>
            </g>
            <g id="Group_912" data-name="Group 912" transform="translate(8.091)">
              <path id="Path_22266" data-name="Path 22266" d="M66.936,50.134a9.334,9.334,0,0,0,2.152-6.854l-.432.046a9.6,9.6,0,0,1-1.924,6.34,5.1,5.1,0,0,1-3.462,1.9h-.058l-.019,0h-.019a6.666,6.666,0,0,1-5.444-2.558,10.512,10.512,0,0,1-2.344-4.282l-.444.048a10.378,10.378,0,0,0,4.812,6.434,2.606,2.606,0,0,0-.3,1.243,3.234,3.234,0,0,1,1.013-.787c.516,1.555,1.934,3.238,3.3,3.093a1.266,1.266,0,0,0,.164-.049c.028,0,.057.017.086.015,1.216-.051,2.037-2.141,2.039-3.8l.005,0a2.821,2.821,0,0,1,1.662.488A2.5,2.5,0,0,0,66.936,50.134Z" transform="translate(-54.942 -43.28)" fill="#627258"/>
              <path id="Path_22267" data-name="Path 22267" d="M61.356,50.7a10.8,10.8,0,0,1-1-2.336,33.539,33.539,0,0,1-1.092-4.343l-1.008.108a18.582,18.582,0,0,0,1.422,4.224A6.486,6.486,0,0,0,61.356,50.7Z" transform="translate(-53.999 -43.071)" fill="#627258"/>
              <path id="Path_22268" data-name="Path 22268" d="M61.656,50.894l-1.094-7.011-1.209.128A33.6,33.6,0,0,0,60.431,48.3,6.992,6.992,0,0,0,61.656,50.894Z" transform="translate(-53.688 -43.109)" fill="#627258"/>
              <path id="Path_22269" data-name="Path 22269" d="M61.9,50.7l.021-.023c1.089-1.287,1.187-5,.943-7.046l-1.008.107C62.085,45.435,62.381,49.114,61.9,50.7Z" transform="translate(-52.976 -43.18)" fill="#627258"/>
              <path id="Path_22270" data-name="Path 22270" d="M62.449,50.355c.018-.022.037-.04.057-.063,1.28-1.528,1.618-4.757,1.4-6.759l-.808.086C63.311,45.4,63.291,48.637,62.449,50.355Z" transform="translate(-52.808 -43.208)" fill="#627258"/>
              <path id="Path_22271" data-name="Path 22271" d="M63.616,49.776c.113-.116.223-.236.33-.365a9.2,9.2,0,0,0,1.846-6.062l-.676.072A10.52,10.52,0,0,1,63.616,49.776Z" transform="translate(-52.476 -43.26)" fill="#627258"/>
              <path id="Path_22272" data-name="Path 22272" d="M59.679,50.064a9.067,9.067,0,0,1-1.343-1.438,11.818,11.818,0,0,1-2.064-4.3L55.6,44.4a10.3,10.3,0,0,0,2.251,4.089A8.533,8.533,0,0,0,59.679,50.064Z" transform="translate(-54.755 -42.982)" fill="#627258"/>
              <path id="Path_22273" data-name="Path 22273" d="M61.815,43.75l-1.211.128,1.1,7.058C62.286,50.1,62.163,46.261,61.815,43.75Z" transform="translate(-53.332 -43.146)" fill="#627258"/>
              <path id="Path_22274" data-name="Path 22274" d="M63.013,50.069c.064-.068.128-.136.19-.209a9.744,9.744,0,0,0,1.685-6.421l-.741.078C64.319,45.182,64.146,48.235,63.013,50.069Z" transform="translate(-52.648 -43.235)" fill="#627258"/>
              <path id="Path_22275" data-name="Path 22275" d="M60.836,50.438a15.868,15.868,0,0,1-2.714-6.3l-.8.086a13.926,13.926,0,0,0,1.715,4.174A7.328,7.328,0,0,0,60.836,50.438Z" transform="translate(-54.266 -43.038)" fill="#627258"/>
              <path id="Path_22276" data-name="Path 22276" d="M60.3,50.258a8.819,8.819,0,0,1-1.356-1.711,14.118,14.118,0,0,1-1.768-4.314l-.738.078a11.589,11.589,0,0,0,1.991,4.13A7.844,7.844,0,0,0,60.3,50.258Z" transform="translate(-54.518 -43.009)" fill="#627258"/>
            </g>
            <g id="Group_914" data-name="Group 914" transform="translate(0 9.443)">
              <g id="Group_913" data-name="Group 913">
                <path id="Path_22277" data-name="Path 22277" d="M53.445,70.8a38.248,38.248,0,0,1-1.654-6.272,27.863,27.863,0,0,1-.247-5.936,13.662,13.662,0,0,1,1.148-5.476,5.744,5.744,0,0,1,.986-1.587l-.074-.09-.1-.123a5.812,5.812,0,0,0-1.038,1.65,14.9,14.9,0,0,0-1.188,5.578A32.824,32.824,0,0,0,52.7,69.081,84.106,84.106,0,0,0,58.56,83.807l.109-.094c-1.174-2.368-2.095-4.48-2.8-6.216C54.633,74.461,53.835,72.035,53.445,70.8Z" transform="translate(-47.899 -50.44)" fill="#627258"/>
                <path id="Path_22278" data-name="Path 22278" d="M58.647,80.491l.595-.154L57.935,77.8l.975-.163-1.522-2.685,1.586-.244s-2.765-3.033-2.5-3.167a22.331,22.331,0,0,1,2.209-.476,4.891,4.891,0,0,0-1.879-2.07c-2.64-1.167-1.857-1.51-1.857-1.51l2.723-.082a5.139,5.139,0,0,0-1.784-2.038,4.406,4.406,0,0,1-1.657-1.776L56.542,64.7A5.042,5.042,0,0,0,55,61.632a6.594,6.594,0,0,1-1.492-4.156l1.806,2.032c-.593-2.348-.279-6.879-.137-8.529a.313.313,0,0,0-.491-.289c-3.216,2.174-5.011,7.437-5.011,7.437l1.732-.97c-2.837,5.472-2.765,7.159-2.765,7.159l2.405-1.847s.651,1.1-.414,2.958a6.183,6.183,0,0,0-.292,4.333l1.725-1.1a.188.188,0,0,1,.284.105c.52,1.807-.424,4.676-.424,4.676L53.9,72.283l-.428,4.73,1.379-1.2.276,3.122.938-.393.484,2.58.529-.235,2.9,5.24q.019-1.185.037-2.369ZM59.3,84a84.106,84.106,0,0,1-5.856-14.726A32.824,32.824,0,0,1,52.02,58.733a14.9,14.9,0,0,1,1.188-5.578,5.812,5.812,0,0,1,1.038-1.65l.1.123.074.09a5.744,5.744,0,0,0-.986,1.587,13.662,13.662,0,0,0-1.148,5.476,27.863,27.863,0,0,0,.247,5.936,38.247,38.247,0,0,0,1.654,6.272c.39,1.238,1.188,3.664,2.423,6.7.706,1.736,1.627,3.848,2.8,6.216Z" transform="translate(-48.642 -50.633)" fill="#627258"/>
              </g>
              <path id="Path_22279" data-name="Path 22279" d="M53.445,70.8a38.248,38.248,0,0,1-1.654-6.272,27.863,27.863,0,0,1-.247-5.936,13.662,13.662,0,0,1,1.148-5.476,5.744,5.744,0,0,1,.986-1.587l-.074-.09-.1-.123a5.812,5.812,0,0,0-1.038,1.65,14.9,14.9,0,0,0-1.188,5.578A32.824,32.824,0,0,0,52.7,69.081,84.106,84.106,0,0,0,58.56,83.807l.109-.094c-1.174-2.368-2.095-4.48-2.8-6.216C54.633,74.461,53.835,72.035,53.445,70.8Z" transform="translate(-47.899 -50.44)" fill="#627258"/>
            </g>
            <g id="Group_917" data-name="Group 917" transform="translate(8.483 17.5)">
              <g id="Group_915" data-name="Group 915" transform="translate(2.661)">
                <path id="Path_22280" data-name="Path 22280" d="M68.349,57.684l-.076.09a20.779,20.779,0,0,1-.114,2.729,22.5,22.5,0,0,1-2.192,7.423c-.235.479-.447.862-.872,1.626-1.366,2.462-2.534,4.175-2.913,4.742a68.536,68.536,0,0,0-4.227,7.41l.107.071c1.659-3.141,3.131-5.626,4.169-7.314a59.7,59.7,0,0,0,3.814-6.411A24.177,24.177,0,0,0,68.319,60.5,10.952,10.952,0,0,0,68.349,57.684Z" transform="translate(-57.138 -56.686)" fill="#627258"/>
                <path id="Path_22281" data-name="Path 22281" d="M68.339,63.818l1.578.934c-.636-7.721-1.395-7.841-1.395-7.841-.216-.033-.424.127-.726.457a10.662,10.662,0,0,0-2.336,6.026l1.366-.265s.351.655-.966,1.739a12.615,12.615,0,0,0-2.143,2.278l2.16-.316-3.243,3.527,1.1.25-2.951,2.9,1.35.307L59.46,76.663l.859.2-1.813,2.007.367.083L57.44,81.5l.245.055-.366,1.471.393.954L59.8,79.391l.407.438,1.313-2.583.435.329,1.518-2.881.814.876,1.551-4.025,1.155,1.067a16.834,16.834,0,0,0,.627-4.465L69.141,69.3a3.631,3.631,0,0,0-.15-2.453A11.408,11.408,0,0,1,68.339,63.818ZM66.225,68.27a59.7,59.7,0,0,1-3.814,6.411C61.373,76.369,59.9,78.854,58.242,82l-.107-.071a68.536,68.536,0,0,1,4.227-7.41c.379-.566,1.546-2.28,2.913-4.742.425-.764.637-1.147.872-1.626a22.5,22.5,0,0,0,2.192-7.423,20.779,20.779,0,0,0,.114-2.729l.076-.09a10.952,10.952,0,0,1-.03,2.82A24.177,24.177,0,0,1,66.225,68.27Z" transform="translate(-57.319 -56.907)" fill="#627258"/>
              </g>
              <g id="Group_916" data-name="Group 916" transform="translate(0 4.54)">
                <path id="Path_22282" data-name="Path 22282" d="M58.593,60.956a8.616,8.616,0,0,0-.832,1.89,20.016,20.016,0,0,0-.92,5.8,49.88,49.88,0,0,0,.339,5.563c.108,1.476.235,3.631.276,6.285l.085-.012a57.437,57.437,0,0,0-.283-6.369c-.055-.506-.234-2.042-.306-4.146-.022-.652-.033-.98-.028-1.378a18.581,18.581,0,0,1,.931-5.691,16.812,16.812,0,0,1,.755-1.86Z" transform="translate(-54.796 -60.295)" fill="#627258"/>
                <path id="Path_22283" data-name="Path 22283" d="M58.483,65.161l.733.638a8.853,8.853,0,0,0,.425-4.807c-.08-.322-.155-.5-.294-.55,0,0-.488-.177-3.193,4.758l1.221-.091a8.425,8.425,0,0,1-1.3,1.8,2.839,2.839,0,0,0-.828,1.586L56.5,68.24a13.619,13.619,0,0,0-.973,3.19l1.009-.324-.289,3.209.749-.31.035,2.434.358-.072,0,2.164.375-.154-.143,3.769.521-.5.226-1.1.163.045L58.45,78.4l.244.068-.474-1.951.57.159-.736-2.8.9.252-.882-2.932.733.205-.868-3.446,1.191.94a10.365,10.365,0,0,0-.589-2.244C58.076,65.479,58.483,65.161,58.483,65.161Zm-.176-2.114a18.581,18.581,0,0,0-.931,5.691c-.005.4.006.726.028,1.378.072,2.1.25,3.64.306,4.146a57.437,57.437,0,0,1,.283,6.369l-.085.012c-.041-2.655-.168-4.81-.276-6.285a49.88,49.88,0,0,1-.339-5.563,20.016,20.016,0,0,1,.92-5.8,8.616,8.616,0,0,1,.832-1.89l.018.085A16.812,16.812,0,0,0,58.307,63.047Z" transform="translate(-55.247 -60.441)" fill="#627258"/>
              </g>
            </g>
            <path id="Path_22284" data-name="Path 22284" d="M67.29,58.181" transform="translate(-43.341 -39.044)" fill="#627258"/>
          </g>
        </g>
      </g>
      <g id="Group_921" data-name="Group 921" transform="translate(7.713 43.44)">
        <path id="Path_22285" data-name="Path 22285" d="M62.136,80.759a1.02,1.02,0,0,0-.2-.062,1.214,1.214,0,0,1-.387-.117.955.955,0,0,1-.277-.317,1.966,1.966,0,0,0-.149-.207.841.841,0,0,0-.227-.187c-.177-.1-.374-.155-.529-.245a.845.845,0,0,1-.2-.164c-.06-.064-.119-.135-.193-.2a.793.793,0,0,0-.123-.089.718.718,0,0,0-.14-.064c-.046-.015-.087-.028-.122-.044a.211.211,0,0,1-.076-.051.207.207,0,0,1-.039-.081l-.006-.024-.008-.03a.4.4,0,0,0-.023-.059c-.012-.024-.024-.048-.037-.071.015.009.031.017.048.024a.92.92,0,0,0,.18.062,1.418,1.418,0,0,0,.218.031,3.93,3.93,0,0,0,.488-.013,2.018,2.018,0,0,1,.455.012.976.976,0,0,1,.181.049.725.725,0,0,1,.137.076.558.558,0,0,1,.094.083.462.462,0,0,1,.055.076l.017.031.012.023q.01.019.015.019c.005,0,.008-.008.012-.022l0-.027a.2.2,0,0,0,0-.037.372.372,0,0,0-.125-.214.689.689,0,0,0-.154-.105.923.923,0,0,0-.211-.072,1.881,1.881,0,0,0-.5-.024c-.172.01-.329.026-.47.024a1.323,1.323,0,0,1-.2-.013.937.937,0,0,1-.164-.039.721.721,0,0,1-.189-.09c-.077-.108-.149-.205-.209-.3a1.272,1.272,0,0,1-.143-.272.5.5,0,0,1-.028-.118.377.377,0,0,1,0-.053c0-.015,0-.032.005-.046a.33.33,0,0,1,.054-.132c.019-.027.031-.042.027-.046l0,0,.005-.01.01-.018a.1.1,0,0,0,0-.074L59,77.494l-.012-.017-.006-.009-.01-.009c-.027-.023-.053-.048-.082-.071l-.031-.022-.026-.017-.054-.032a1.374,1.374,0,0,0-.216-.1,2.314,2.314,0,0,0-.38-.1l-.058-.017a.254.254,0,0,0-.063,0,.38.38,0,0,0-.068.013c-.053.015-.067.03-.072.036l-.012.018a.082.082,0,0,0-.005.039.113.113,0,0,0,.019.055.313.313,0,0,0-.018.04.7.7,0,0,1-.026.069c-.01.027-.019.058-.033.091s-.027.069-.048.105a.989.989,0,0,1-.068.114l-.042.059c-.017.018-.032.039-.05.058-.035.039-.073.078-.116.118s-.086.078-.127.119a1,1,0,0,0-.11.126.657.657,0,0,0-.044.067c-.013.021-.022.04-.032.059-.021.039-.039.076-.055.109a1.431,1.431,0,0,0-.069.161l-.008.028c-.1.06-.2.119-.3.175s-.211.116-.311.175a1.461,1.461,0,0,0-.266.194.79.79,0,0,0-.163.225.719.719,0,0,0-.042.108l-.014.05c0,.015-.006.032-.009.048a.862.862,0,0,0-.018.157v.024l-.032.08-.014.019a.753.753,0,0,1-.055.066.706.706,0,0,1-.077.072.933.933,0,0,1-.1.071.859.859,0,0,1-.125.059l-.033.012-.036.01a.558.558,0,0,1-.073.017c-.105.019-.217.026-.322.046a.743.743,0,0,0-.149.04.647.647,0,0,0-.119.057.471.471,0,0,0-.083.064l-.028.031-.019.028c-.023.033-.03.054-.023.059s.012,0,.022,0l.042-.023.031-.013.036-.018c.024-.012.054-.023.086-.036a.994.994,0,0,1,.234-.055c.1-.012.205-.014.33-.036.031-.006.063-.014.092-.023l.045-.015.041-.017a.763.763,0,0,0,.091-.049,1.655,1.655,0,0,1-.216.2c-.119.091-.243.176-.358.265a1.707,1.707,0,0,0-.3.283.9.9,0,0,0-.158.308,1.031,1.031,0,0,0-.039.268,1.542,1.542,0,0,0,.008.2c.01.109.024.168.033.168s.009-.014.015-.044.009-.069.015-.123.015-.119.028-.194a1.4,1.4,0,0,1,.064-.247A.87.87,0,0,1,54.969,81a1.707,1.707,0,0,1,.286-.25c.112-.082.239-.166.363-.263a1.342,1.342,0,0,0,.338-.353,2.872,2.872,0,0,0,.181-.415.922.922,0,0,1,.205-.333,1.368,1.368,0,0,1,.316-.217c.055-.028.113-.057.163-.077s.108-.037.162-.053l.023-.006a.336.336,0,0,0-.048.112.5.5,0,0,0-.014.092.7.7,0,0,0,0,.1,2.129,2.129,0,0,1,0,.222,1.085,1.085,0,0,1-.037.213c-.009.032-.019.063-.03.091s-.021.055-.031.08-.019.046-.026.067-.014.037-.018.053c-.01.031-.015.048-.009.051s.009,0,.018,0a.336.336,0,0,0,.036-.022.4.4,0,0,0,.05-.04c.009-.009.021-.017.03-.027l.027-.033q.027-.037.054-.081a.885.885,0,0,0,.048-.1.792.792,0,0,0,.054-.241.831.831,0,0,0,0-.127c0-.04-.01-.077-.015-.113a1.7,1.7,0,0,1-.024-.179.561.561,0,0,1,0-.119l0-.019a1.3,1.3,0,0,0,.2-.076.663.663,0,0,0,.181-.127l-.018.035c-.015.033-.027.072-.042.114a1,1,0,0,0-.028.14,1.139,1.139,0,0,0,.013.345,2.083,2.083,0,0,1,.048.394.781.781,0,0,1-.048.207c-.017.051-.036.105-.054.161a.764.764,0,0,1-.071.076.712.712,0,0,1-.157.113c-.031.017-.064.032-.1.046s-.074.024-.116.036c-.082.023-.176.041-.277.074a.869.869,0,0,0-.155.062.64.64,0,0,0-.076.044.534.534,0,0,0-.068.053.919.919,0,0,0-.194.236c-.048.078-.085.154-.123.222a1.208,1.208,0,0,1-.117.18.662.662,0,0,1-.134.128,1,1,0,0,1-.261.136c-.068.026-.109.042-.108.053s.012.01.033.015a.433.433,0,0,0,.1,0,.84.84,0,0,0,.333-.1.778.778,0,0,0,.186-.14,1.284,1.284,0,0,0,.154-.2c.045-.071.086-.144.132-.214a.841.841,0,0,1,.159-.19.272.272,0,0,1,.049-.037.522.522,0,0,1,.053-.032.776.776,0,0,1,.119-.05c.085-.03.177-.055.268-.086.045-.017.089-.033.131-.054a.851.851,0,0,0,.117-.069l.049-.039c0,.021-.008.042-.01.063-.013.089-.018.179-.026.267a1.141,1.141,0,0,1-.121.509.829.829,0,0,1-.177.205,1.844,1.844,0,0,1-.232.172c-.082.053-.17.109-.25.164l-.119.085-.11.09a1.805,1.805,0,0,0-.349.388,1.513,1.513,0,0,0-.184.393l-.024.091a.763.763,0,0,0-.019.087c-.014.057-.019.109-.027.159-.013.1-.021.185-.023.256h0c-.012.033-.023.068-.032.1l-.026.094-.018.092c-.005.03-.012.058-.015.086s-.024.049-.039.073-.028.051-.045.077c-.032.053-.069.107-.109.161s-.086.109-.134.163-.1.105-.149.153-.105.094-.155.144a.755.755,0,0,0-.123.154.616.616,0,0,0-.064.154.5.5,0,0,0-.017.131.409.409,0,0,0,.012.1.23.23,0,0,0,.021.06q.01.019.015.019c.005,0,.008-.009.01-.022l.009-.059a.7.7,0,0,1,.062-.2.66.66,0,0,1,.076-.125.964.964,0,0,1,.119-.123c.048-.042.1-.086.159-.135a1.792,1.792,0,0,0,.163-.164,1.529,1.529,0,0,0,.136-.179c.014-.021.026-.04.039-.059a2.247,2.247,0,0,0,.023.245c.013.091.027.173.04.244l.033.184c.008.05.015.089.021.116s.012.041.015.041.01-.014.015-.041a.849.849,0,0,0,.014-.118,1.813,1.813,0,0,0,0-.187c0-.073-.008-.155-.013-.247a2.424,2.424,0,0,1,0-.292c0-.053.005-.107.014-.161l.013-.085c0-.027.012-.055.018-.085l.019-.087.027-.087c.017-.06.042-.118.065-.179a.938.938,0,0,1,.04-.091l.044-.09.051-.09.026-.045c.009-.015.019-.03.028-.045l.058-.087c.019-.03.042-.057.063-.085s.04-.057.064-.082l.067-.078.033-.039.036-.036.069-.072c.048-.046.1-.09.145-.134l.148-.118.146-.105.144-.091c.048-.028.1-.053.139-.078.089-.05.175-.094.245-.14a.631.631,0,0,0,.064-.045.374.374,0,0,0-.018.04.67.67,0,0,0-.051.274,1.332,1.332,0,0,0,.06.36h0c-.032.018-.065.035-.1.053-.08.037-.162.072-.243.112a1.3,1.3,0,0,0-.229.134.656.656,0,0,0-.162.172.663.663,0,0,0-.08.173.811.811,0,0,0-.031.146.567.567,0,0,0-.005.11.348.348,0,0,0,.01.069c0,.017.008.024.013.026s.026-.031.05-.086c.013-.028.023-.063.039-.1s.033-.082.057-.127a.759.759,0,0,1,.089-.139.684.684,0,0,1,.141-.127,1.394,1.394,0,0,1,.2-.109c.077-.035.161-.069.247-.112l.046-.024.006.028a.959.959,0,0,1,.013.1v.051c0,.018,0,.037-.005.057a1.675,1.675,0,0,1-.112.47,1.36,1.36,0,0,1-.3.456c-.068.072-.145.144-.221.221a1.28,1.28,0,0,0-.208.263.866.866,0,0,0-.1.311,1.262,1.262,0,0,0,0,.3c.013.134.035.259.053.38-.117.053-.232.1-.34.161a2.237,2.237,0,0,0-.336.208,1.369,1.369,0,0,0-.244.231.966.966,0,0,0-.139.227.587.587,0,0,0-.048.189v.071a.251.251,0,0,0,.006.05c.006.027.01.041.015.041s.009-.014.014-.041a.322.322,0,0,1,.01-.048l.008-.03.013-.033a.727.727,0,0,1,.076-.166,1.032,1.032,0,0,1,.15-.194,1.409,1.409,0,0,1,.239-.2,2.546,2.546,0,0,1,.325-.181c.086-.041.176-.08.271-.121a1.512,1.512,0,0,1,0,.24.977.977,0,0,1-.048.222,1.3,1.3,0,0,1-.209.37,2.92,2.92,0,0,1-.25.279c-.08.08-.15.146-.209.2s-.1.1-.134.128-.042.048-.04.05a1.012,1.012,0,0,0,.223-.135c.068-.048.15-.108.24-.182a2.335,2.335,0,0,0,.284-.275,1.348,1.348,0,0,0,.249-.4,1.014,1.014,0,0,0,.063-.249,1.529,1.529,0,0,0,0-.266l-.005-.06c.122-.054.249-.11.375-.179a2.015,2.015,0,0,0,.387-.266,1.175,1.175,0,0,0,.152-.159.937.937,0,0,0,.11-.173.862.862,0,0,0,.062-.181,1.052,1.052,0,0,0,.019-.172c0-.055,0-.108,0-.158s0-.1,0-.141c0-.131,0-.245-.008-.336l.005.022c.014.042.03.091.049.143s.041.107.068.164c.053.118.119.249.2.392s.158.3.235.469c.018.039.036.08.053.121v.026a.647.647,0,0,1-.031.148.527.527,0,0,1-.089.161.572.572,0,0,1-.167.141c-.069.041-.154.077-.244.119-.045.021-.092.044-.139.069s-.091.054-.136.082a1.853,1.853,0,0,0-.24.193,1.592,1.592,0,0,0-.184.208l-.037.051-.033.053c-.023.035-.04.069-.058.1s-.031.067-.045.1-.023.063-.035.092a1.2,1.2,0,0,0-.037.163.65.65,0,0,0-.008.126c0,.033,0,.06.006.078s.006.027.012.028.01-.009.018-.026.014-.042.027-.074l.021-.051c.006-.019.015-.04.024-.062.017-.045.041-.092.065-.146l.042-.083c.017-.027.032-.058.053-.087s.037-.06.06-.09l.035-.046.037-.046a1.666,1.666,0,0,1,.175-.185,1.9,1.9,0,0,1,.218-.172c.041-.026.081-.053.122-.076s.083-.045.127-.067a1.7,1.7,0,0,0,.254-.144.731.731,0,0,0,.107-.09.634.634,0,0,0,.08-.1.6.6,0,0,0,.077-.177,1.836,1.836,0,0,1,.048.209,1.268,1.268,0,0,1-.065.607,2.808,2.808,0,0,1-.324.619c-.136.2-.284.4-.417.6-.068.1-.131.2-.188.3a2.979,2.979,0,0,0-.15.3,2.78,2.78,0,0,0-.234,1.1,2.65,2.65,0,0,0,.036.429,2.288,2.288,0,0,0,.078.317l.041.112c.014.032.028.059.039.081.022.042.036.064.041.063s0-.026,0-.072l-.032-.2c-.008-.042-.013-.091-.021-.143s-.01-.109-.017-.171a3.131,3.131,0,0,1,0-.414,2.972,2.972,0,0,1,.262-1.042c.033-.037.068-.077.108-.117.08-.083.175-.171.28-.263s.223-.189.345-.3a3.716,3.716,0,0,0,.361-.363,2.138,2.138,0,0,0,.164-.217l.005-.006h0l0,0v0l0,0h0v.009h0V86.6a.321.321,0,0,1-.008.049l-.008.049-.012.049c-.006.032-.017.064-.026.1s-.021.064-.033.1a5.567,5.567,0,0,1-.281.6c-.087.17-.171.336-.236.5-.041.044-.089.09-.139.14a2.171,2.171,0,0,0-.212.243,1.168,1.168,0,0,0-.159.326,1.06,1.06,0,0,0-.041.39,2.391,2.391,0,0,0,.078.4,1.677,1.677,0,0,1,.063.379,1.016,1.016,0,0,1-.051.344,1.339,1.339,0,0,1-.143.3c-.027.045-.059.086-.089.127l-.046.057c-.015.018-.031.036-.048.053l-.046.05L57.4,90.9c-.03.031-.06.057-.089.082s-.057.048-.082.069-.049.04-.071.057l-.031.023-.026.022-.042.033c-.023.018-.035.03-.032.032s.018,0,.048-.012a.869.869,0,0,0,.125-.053.95.95,0,0,0,.085-.046c.031-.018.064-.037.1-.06a1.283,1.283,0,0,0,.105-.077l.055-.044.054-.05a.727.727,0,0,0,.055-.054c.018-.019.037-.037.055-.058.035-.041.072-.083.105-.131a1.408,1.408,0,0,0,.173-.32,1.1,1.1,0,0,0,.068-.388,1.64,1.64,0,0,0-.063-.41,2.751,2.751,0,0,1-.083-.383.975.975,0,0,1,.022-.347,1.068,1.068,0,0,1,.126-.3,1.753,1.753,0,0,1,.14-.189,1.429,1.429,0,0,0-.051.389,1.707,1.707,0,0,0,.1.491c.048.144.1.27.137.381s.081.207.114.285a1.024,1.024,0,0,0,.117.239.979.979,0,0,0-.045-.256c-.019-.081-.044-.18-.076-.294s-.071-.244-.108-.385a1.7,1.7,0,0,1-.067-.461,1.536,1.536,0,0,1,.114-.52,5.586,5.586,0,0,1,.267-.559,4.526,4.526,0,0,0,.285-.622c.013-.035.023-.069.033-.105s.021-.071.027-.107l.012-.053.008-.054c0-.018.005-.036.006-.054l0-.017c.021.09.044.19.067.3s.051.261.071.407a2.735,2.735,0,0,1,.027.466,2.514,2.514,0,0,1-.085.51c-.044.176-.1.36-.148.552a2.722,2.722,0,0,0-.1.573,1.46,1.46,0,0,0,.073.547,2.22,2.22,0,0,0,.227.452c.068.107.137.2.2.293.023.044.048.087.071.13.082.145.17.281.252.414a4.72,4.72,0,0,1,.4.74,2.181,2.181,0,0,1,.149.651,2.68,2.68,0,0,1-.008.506c-.015.14-.035.248-.046.321s-.017.113-.009.116.026-.036.054-.107a2.179,2.179,0,0,0,.091-.32,2.39,2.39,0,0,0,.05-.521,2.108,2.108,0,0,0-.127-.688,4.409,4.409,0,0,0-.393-.769,4.755,4.755,0,0,1-.442-.855,1.61,1.61,0,0,1-.091-.484,2.377,2.377,0,0,1,.044-.516c.012-.067.026-.132.041-.2l0,.041a2.248,2.248,0,0,0,.059.312,1.48,1.48,0,0,0,.128.326c.014.027.033.054.049.08s.035.049.051.073c.033.049.068.094.1.139.068.09.134.175.193.257a2.8,2.8,0,0,1,.154.234,1.436,1.436,0,0,1,.1.213q.017.05.031.1c.005.031.014.06.018.087s.006.054.009.078l0,.067v.054c0,.015,0,.028,0,.04s0,.035.009.035.013-.009.024-.03a.349.349,0,0,0,.037-.092l.018-.069c0-.027.005-.055.008-.086a.862.862,0,0,0,0-.1c0-.035-.009-.071-.015-.109a1.152,1.152,0,0,0-.086-.243,2.019,2.019,0,0,0-.146-.256c-.057-.087-.119-.176-.186-.266l-.1-.137c-.033-.048-.063-.091-.09-.139a1.526,1.526,0,0,1-.123-.293,2.137,2.137,0,0,1-.069-.289c-.009-.048-.014-.094-.021-.139s-.012-.089-.013-.131c-.006-.083-.01-.163-.013-.236v-.042c.032-.125.064-.249.092-.378.01-.048.021-.1.028-.145s.018-.1.023-.145a1.608,1.608,0,0,0,.017-.294c-.005-.2-.04-.38-.058-.559,0-.04-.008-.078-.01-.118.046.058.092.114.139.168.071.085.143.162.2.238a.962.962,0,0,1,.136.221,1.074,1.074,0,0,1,.065.212c.015.068.023.13.031.185l.019.144c.009.039.014.071.019.091s.012.032.017.032.012-.01.018-.032.014-.051.023-.091a1.311,1.311,0,0,0,.013-.343.991.991,0,0,0-.053-.24,1.013,1.013,0,0,0-.139-.258c-.062-.085-.132-.164-.2-.248s-.14-.17-.209-.258l-.077-.1.008-.123c.006-.089.006-.176.009-.262s0-.172,0-.257a4.014,4.014,0,0,0-.139-.956,3.348,3.348,0,0,0-.149-.419,4.134,4.134,0,0,0-.189-.37c-.132-.23-.27-.428-.363-.609-.021-.039-.039-.076-.055-.113l.017.026a1.286,1.286,0,0,0,.193.214,3.047,3.047,0,0,0,.245.191,2.494,2.494,0,0,1,.229.182,1.492,1.492,0,0,1,.173.194,1.21,1.21,0,0,1,.119.2,1.1,1.1,0,0,1,.074.184c.006.022.013.042.018.063a.857.857,0,0,0-.019.23.813.813,0,0,0,.073.293,1.6,1.6,0,0,0,.347.464,5.086,5.086,0,0,0,.4.342,2.521,2.521,0,0,1,.326.292.9.9,0,0,1,.1.144.5.5,0,0,1,.051.14.422.422,0,0,1-.018.235.471.471,0,0,1-.085.135c-.026.03-.042.044-.039.048s.026,0,.063-.026a.384.384,0,0,0,.13-.132.451.451,0,0,0,.059-.27.542.542,0,0,0-.044-.17.8.8,0,0,0-.1-.171,2.23,2.23,0,0,0-.327-.322c-.123-.105-.256-.217-.378-.342a1.471,1.471,0,0,1-.308-.421.682.682,0,0,1-.06-.245.922.922,0,0,1,.031-.265c.022-.091.048-.186.062-.285a1.178,1.178,0,0,0,0-.293,1.259,1.259,0,0,0-.184-.525.951.951,0,0,0-.179-.216c-.071-.059-.143-.11-.211-.158a2.25,2.25,0,0,1-.349-.271.853.853,0,0,1-.19-.28.753.753,0,0,1-.048-.128.577.577,0,0,1-.021-.085V82.5l0-.064c.005-.046.009-.1.018-.157s.022-.122.032-.193a1.2,1.2,0,0,0,.019-.234.684.684,0,0,0-.059-.267,1.375,1.375,0,0,0-.162-.245.9.9,0,0,1-.072-.11.408.408,0,0,1-.024-.054l-.01-.028-.008-.028a.732.732,0,0,1-.017-.23c.012-.152.041-.3.048-.419v-.015c.035.045.071.09.109.134.081.091.17.18.254.27a2.147,2.147,0,0,1,.22.272,1.128,1.128,0,0,1,.128.281,2.828,2.828,0,0,0,.1.283.878.878,0,0,0,.072.127.73.73,0,0,0,.09.107,1.1,1.1,0,0,0,.19.149,1.511,1.511,0,0,0,.159.087,1.072,1.072,0,0,0,.107.046c.027.008.042.01.045.008s-.006-.014-.023-.033a1.079,1.079,0,0,0-.083-.071c-.037-.03-.083-.064-.134-.107a1.2,1.2,0,0,1-.153-.15.737.737,0,0,1-.067-.1c-.019-.036-.036-.073-.053-.113-.024-.065-.045-.139-.067-.218a.722.722,0,0,0,0-.077.58.58,0,0,0,0-.081.792.792,0,0,0-.01-.091,1.484,1.484,0,0,0-.05-.205,1.868,1.868,0,0,0-.092-.226,2.62,2.62,0,0,0-.134-.238c-.05-.081-.1-.162-.158-.244a1.559,1.559,0,0,1-.134-.238.283.283,0,0,1-.023-.187.6.6,0,0,1,.134.117c.03.032.058.072.092.116a1.059,1.059,0,0,0,.125.139.515.515,0,0,0,.092.066.716.716,0,0,0,.109.053,1.194,1.194,0,0,1,.212.1.36.36,0,0,1,.128.173.247.247,0,0,1,.017.053.361.361,0,0,1,.006.057.818.818,0,0,0,.014.139.249.249,0,0,0,.035.081.379.379,0,0,0,.053.066c.037.04.077.074.116.109a1.175,1.175,0,0,1,.107.1l.022.028.024.03.045.063c.042.058.083.119.123.182h0a.523.523,0,0,1,0,.135.888.888,0,0,1-.042.176c-.022.064-.053.134-.086.212a1.64,1.64,0,0,0-.1.259.635.635,0,0,0,0,.316,2.025,2.025,0,0,0,.119.3.939.939,0,0,1,.09.277.408.408,0,0,1-.009.126.9.9,0,0,1-.045.128,1.028,1.028,0,0,0-.045.139.724.724,0,0,0-.012.073.62.62,0,0,0,0,.069.6.6,0,0,0,.076.24,1.026,1.026,0,0,0,.118.17,1.143,1.143,0,0,0,.109.112c.032.03.06.05.078.064s.031.021.035.018,0-.014-.009-.033-.026-.048-.048-.082l-.035-.057c-.014-.021-.027-.044-.042-.068a1.151,1.151,0,0,1-.087-.164.559.559,0,0,1-.046-.2.379.379,0,0,1,0-.054.383.383,0,0,1,.012-.055.865.865,0,0,1,.048-.121,1.24,1.24,0,0,0,.058-.141.491.491,0,0,0,.018-.168.622.622,0,0,0-.033-.167,1.637,1.637,0,0,0-.063-.155,2.111,2.111,0,0,1-.119-.284.514.514,0,0,1-.021-.13.612.612,0,0,1,.01-.128,1.832,1.832,0,0,1,.072-.247,2.016,2.016,0,0,0,.068-.226.734.734,0,0,0,.018-.184c.044.071.086.141.131.216l.091.146.046.073a.067.067,0,0,1,.014.036s-.006.014-.026.033a.694.694,0,0,0-.069.076.457.457,0,0,0-.083.19.641.641,0,0,0,.057.375,1.661,1.661,0,0,0,.193.307,2.387,2.387,0,0,1,.182.271.735.735,0,0,1,.087.272,2.637,2.637,0,0,1,.015.286c0,.048.005.1.009.144s.013.094.022.14a2.561,2.561,0,0,0,.143.437h0s0,.009,0,.019l.013.042a.32.32,0,0,1,0,.152.506.506,0,0,1-.028.1,1.282,1.282,0,0,1-.053.117c-.021.042-.044.087-.064.136a.682.682,0,0,0-.051.162.42.42,0,0,0,.005.175.7.7,0,0,0,.059.148c.023.044.048.083.069.119s.044.071.064.1c.041.06.077.109.1.141.013.017.026.028.033.037s.015.012.019.01,0-.008,0-.018a.22.22,0,0,0-.01-.046,1.674,1.674,0,0,0-.054-.161c-.014-.033-.03-.069-.048-.107s-.036-.08-.054-.121a.767.767,0,0,1-.042-.13.358.358,0,0,1,0-.134,1.424,1.424,0,0,1,.092-.276.685.685,0,0,0,.04-.134.446.446,0,0,0,.01-.1c.031.069.059.134.085.194a2.728,2.728,0,0,1,.1.29V85.4a2.344,2.344,0,0,0,.048.294.819.819,0,0,0,.105.256,2.174,2.174,0,0,0,.146.194,1.173,1.173,0,0,1,.117.157.433.433,0,0,1,.076.239c0,.058-.014.087-.008.09s.031-.024.046-.086a.414.414,0,0,0-.048-.268,1.219,1.219,0,0,0-.109-.172,1.992,1.992,0,0,1-.13-.191.762.762,0,0,1-.083-.235A2.3,2.3,0,0,1,61.8,85.4c-.032-.407-.072-.89-.121-1.428a4.062,4.062,0,0,0-.149-.846c-.018-.055-.037-.11-.06-.164.018.017.035.035.054.051.1.092.225.176.329.274a.69.69,0,0,1,.128.15.6.6,0,0,1,.068.161.781.781,0,0,1,.017.3c-.005.042-.013.082-.019.117s-.015.064-.022.09c-.012.049-.018.078-.009.081s.013,0,.023-.014a.328.328,0,0,0,.041-.05.621.621,0,0,0,.049-.086.737.737,0,0,0,.046-.122.723.723,0,0,0,.017-.338.61.61,0,0,0-.074-.2.756.756,0,0,0-.149-.18,2.173,2.173,0,0,0-.18-.145c-.059-.042-.116-.083-.166-.123a.812.812,0,0,1-.127-.118.6.6,0,0,1-.085-.118.441.441,0,0,1-.024-.05,1.218,1.218,0,0,1,.109-.351l.023-.057a.477.477,0,0,0,.021-.06.7.7,0,0,0,.027-.125.794.794,0,0,0-.008-.247.962.962,0,0,0-.22-.439,1.414,1.414,0,0,0-.392-.312,2.24,2.24,0,0,1-.2-.118.7.7,0,0,1-.144-.137.608.608,0,0,1-.09-.164.628.628,0,0,1-.033-.176c0-.063-.005-.127-.015-.194a.415.415,0,0,0-.085-.2.492.492,0,0,0-.185-.128c-.065-.03-.131-.049-.19-.071a1.079,1.079,0,0,1-.161-.071.791.791,0,0,1-.134-.092.7.7,0,0,1-.253-.46.747.747,0,0,1,0-.092.446.446,0,0,0,.058.033c.046.022.092.036.132.053a.573.573,0,0,1,.109.051.626.626,0,0,1,.1.073c.06.055.116.122.179.191a1.337,1.337,0,0,0,.1.105.955.955,0,0,0,.13.094,2.123,2.123,0,0,0,.279.135,2.717,2.717,0,0,1,.25.116.7.7,0,0,1,.184.149,1.9,1.9,0,0,1,.141.189,2.006,2.006,0,0,0,.145.194.75.75,0,0,0,.2.162.491.491,0,0,0,.058.03l.06.024a1.174,1.174,0,0,0,.119.031c.076.017.148.026.212.036a.965.965,0,0,1,.172.042.5.5,0,0,1,.13.068.455.455,0,0,1,.144.173.481.481,0,0,1,.039.135c0,.033,0,.051.008.053s.015-.015.026-.05a.283.283,0,0,0,0-.155.439.439,0,0,0-.139-.222A.6.6,0,0,0,62.136,80.759Z" transform="translate(-54.647 -77.104)" fill="#627258"/>
      </g>
    </g>
    <text id="ases" transform="translate(85.022 93.065)" fill="#627258" font-size="59" font-family="HenriDidot, Henri Didot" style="isolation: isolate"><tspan x="0" y="0">ases</tspan></text>
  </g>
</svg>
