<svg xmlns="http://www.w3.org/2000/svg" width="176.596" height="76.155" viewBox="0 0 176.596 76.155">
  <g id="Group_936" data-name="Group 936" transform="translate(-91 -6324.005)">
    <g id="Group_935" data-name="Group 935" transform="translate(-540.678 6116.005)">
      <g id="Group_906" data-name="Group 906" transform="translate(688.256 208)">
        <g id="Group_904" data-name="Group 904" transform="translate(0 0)">
          <g id="Group_903" data-name="Group 903">
            <g id="Group_902" data-name="Group 902">
              <g id="Group_895" data-name="Group 895" transform="translate(11.414 11.879)">
                <path id="Path_22242" data-name="Path 22242" d="M60.675,85.689,60.139,84.5a38.274,38.274,0,0,1,.92-7.416,36.022,36.022,0,0,1,1.114-3.954c.586-1.7,1.356-3.371,2.981-6.9a24.755,24.755,0,0,0,1.984-10.729,28.085,28.085,0,0,0-.583-5.194l.839-.219a28.371,28.371,0,0,1,.612,5.389,25.79,25.79,0,0,1-2.074,11.214C62.329,74.511,60.414,81.437,60.675,85.689Z" transform="translate(-60.139 -50.079)" fill="#fff" stroke="#565f48" stroke-width="0.024"/>
              </g>
              <g id="Group_896" data-name="Group 896" transform="translate(8.525)">
                <path id="Path_22243" data-name="Path 22243" d="M70.986,49.926A9.839,9.839,0,0,0,73.254,42.7l-.456.048a10.117,10.117,0,0,1-2.026,6.682,5.373,5.373,0,0,1-3.649,2.007l-.011,0h0l-.011,0h0l-.011,0h0l-.015,0h0l-.021,0h-.008l0,0h-.006a7.021,7.021,0,0,1-5.737-2.7,11.063,11.063,0,0,1-2.469-4.511l-.47.05a10.944,10.944,0,0,0,5.072,6.78,2.763,2.763,0,0,0-.32,1.309,3.417,3.417,0,0,1,1.068-.829c.544,1.64,2.037,3.413,3.474,3.26a1.6,1.6,0,0,0,.171-.052.915.915,0,0,0,.092.016c1.282-.055,2.147-2.256,2.148-4.007l.006,0a2.979,2.979,0,0,1,1.752.514A2.644,2.644,0,0,0,70.986,49.926Z" transform="translate(-58.345 -42.703)" fill="#fff"/>
                <path id="Path_22244" data-name="Path 22244" d="M64.4,50.36A11.361,11.361,0,0,1,63.345,47.9a34.987,34.987,0,0,1-1.15-4.575l-1.063.113a19.587,19.587,0,0,0,1.5,4.451A6.818,6.818,0,0,0,64.4,50.36Z" transform="translate(-56.643 -42.325)" fill="#fff"/>
                <path id="Path_22245" data-name="Path 22245" d="M64.479,50.6,63.326,43.21l-1.274.135a35.533,35.533,0,0,0,1.135,4.516A7.369,7.369,0,0,0,64.479,50.6Z" transform="translate(-56.082 -42.393)" fill="#fff"/>
                <path id="Path_22246" data-name="Path 22246" d="M64.205,50.449l.021-.024c1.148-1.356,1.25-5.273.994-7.424l-1.063.113C64.4,44.9,64.708,48.775,64.205,50.449Z" transform="translate(-54.797 -42.522)" fill="#fff"/>
                <path id="Path_22247" data-name="Path 22247" d="M64.654,50.1c.019-.021.04-.042.06-.064,1.35-1.611,1.706-5.014,1.477-7.125l-.852.092C65.561,44.883,65.541,48.294,64.654,50.1Z" transform="translate(-54.493 -42.574)" fill="#fff"/>
                <path id="Path_22248" data-name="Path 22248" d="M65.634,49.533c.119-.121.237-.25.349-.385a9.7,9.7,0,0,0,1.944-6.387l-.712.076A11.083,11.083,0,0,1,65.634,49.533Z" transform="translate(-53.895 -42.668)" fill="#fff"/>
                <path id="Path_22249" data-name="Path 22249" d="M63.2,49.629a9.5,9.5,0,0,1-1.414-1.517,12.432,12.432,0,0,1-2.176-4.529l-.709.076a10.817,10.817,0,0,0,2.372,4.308A9.039,9.039,0,0,0,63.2,49.629Z" transform="translate(-58.007 -42.166)" fill="#fff"/>
                <path id="Path_22250" data-name="Path 22250" d="M64.38,43.1l-1.276.135,1.161,7.437C64.876,49.79,64.745,45.744,64.38,43.1Z" transform="translate(-55.44 -42.462)" fill="#fff"/>
                <path id="Path_22251" data-name="Path 22251" d="M65.128,49.824c.068-.072.135-.143.2-.222,1.525-1.831,1.941-4.948,1.775-6.766l-.783.082C66.5,44.674,66.321,47.891,65.128,49.824Z" transform="translate(-54.204 -42.622)" fill="#fff"/>
                <path id="Path_22252" data-name="Path 22252" d="M64.05,50.063c-1.424-1.609-2.5-4.849-2.86-6.643l-.846.09a14.65,14.65,0,0,0,1.807,4.4A7.74,7.74,0,0,0,64.05,50.063Z" transform="translate(-57.125 -42.265)" fill="#fff"/>
                <path id="Path_22253" data-name="Path 22253" d="M63.67,49.853a9.347,9.347,0,0,1-1.43-1.8A14.845,14.845,0,0,1,60.378,43.5l-.779.084a12.191,12.191,0,0,0,2.1,4.35A8.226,8.226,0,0,0,63.67,49.853Z" transform="translate(-57.579 -42.214)" fill="#fff"/>
              </g>
              <g id="Group_898" data-name="Group 898" transform="translate(0 9.951)">
                <g id="Group_897" data-name="Group 897">
                  <path id="Path_22254" data-name="Path 22254" d="M57.555,69.986a40.236,40.236,0,0,1-1.743-6.61,29.3,29.3,0,0,1-.259-6.255,14.367,14.367,0,0,1,1.209-5.77A6,6,0,0,1,57.8,49.677l-.079-.1-.106-.129a6.064,6.064,0,0,0-1.094,1.738,15.692,15.692,0,0,0-1.251,5.878,34.538,34.538,0,0,0,1.5,11.108A88.471,88.471,0,0,0,62.946,83.7l.114-.1c-1.237-2.495-2.208-4.72-2.95-6.55C58.807,73.848,57.967,71.29,57.555,69.986Z" transform="translate(-51.712 -48.533)" fill="none"/>
                  <path id="Path_22255" data-name="Path 22255" d="M63.593,80.347l.628-.163-1.377-2.675,1.028-.171-1.6-2.83,1.672-.258s-2.913-3.2-2.638-3.337a23.325,23.325,0,0,1,2.329-.5,5.163,5.163,0,0,0-1.981-2.182c-2.783-1.229-1.957-1.591-1.957-1.591l2.87-.087A5.417,5.417,0,0,0,60.683,64.4a4.636,4.636,0,0,1-1.747-1.87l2.44,1.169a5.306,5.306,0,0,0-1.623-3.229,6.955,6.955,0,0,1-1.573-4.381l1.9,2.14c-.625-2.474-.295-7.247-.145-8.987a.329.329,0,0,0-.517-.3c-3.389,2.292-5.281,7.837-5.281,7.837l1.825-1.021c-2.989,5.767-2.912,7.542-2.912,7.542l2.533-1.946s.688,1.16-.435,3.118a6.511,6.511,0,0,0-.308,4.566l1.817-1.164a.2.2,0,0,1,.3.111c.549,1.905-.446,4.928-.446,4.928L58.592,71.7l-.451,4.985,1.453-1.263.292,3.289.989-.414.509,2.719.559-.246,3.052,5.521q.022-1.249.04-2.5Zm.693,3.7a88.471,88.471,0,0,1-6.17-15.519,34.537,34.537,0,0,1-1.5-11.108,15.692,15.692,0,0,1,1.251-5.878A6.065,6.065,0,0,1,58.956,49.8l.106.129.079.1A6,6,0,0,0,58.1,51.7a14.367,14.367,0,0,0-1.21,5.77,29.3,29.3,0,0,0,.259,6.255,40.236,40.236,0,0,0,1.743,6.61c.412,1.3,1.251,3.862,2.554,7.061.742,1.83,1.714,4.055,2.95,6.55Z" transform="translate(-53.052 -48.882)" fill="#fff"/>
                </g>
                <path id="Path_22256" data-name="Path 22256" d="M57.555,69.986a40.236,40.236,0,0,1-1.743-6.61,29.3,29.3,0,0,1-.259-6.255,14.408,14.408,0,0,1,1.208-5.77,6.02,6.02,0,0,1,1.04-1.673l-.079-.1-.106-.129a6.064,6.064,0,0,0-1.094,1.738,15.692,15.692,0,0,0-1.251,5.878,34.538,34.538,0,0,0,1.5,11.108A88.471,88.471,0,0,0,62.946,83.7l.114-.1c-1.237-2.495-2.208-4.72-2.95-6.55C58.807,73.848,57.967,71.29,57.555,69.986Z" transform="translate(-51.712 -48.533)" fill="none"/>
              </g>
              <g id="Group_901" data-name="Group 901" transform="translate(8.939 18.442)">
                <g id="Group_899" data-name="Group 899" transform="translate(2.804)">
                  <path id="Path_22257" data-name="Path 22257" d="M71.83,54.807l-.081.1a21.964,21.964,0,0,1-.119,2.876A23.724,23.724,0,0,1,69.32,65.6c-.248.5-.472.907-.92,1.714-1.44,2.593-2.67,4.4-3.07,5a72.018,72.018,0,0,0-4.453,7.809l.111.074c1.749-3.31,3.3-5.93,4.393-7.708A62.6,62.6,0,0,0,69.4,65.73a25.465,25.465,0,0,0,2.4-7.951A11.518,11.518,0,0,0,71.83,54.807Z" transform="translate(-60.016 -53.756)" fill="none"/>
                  <path id="Path_22258" data-name="Path 22258" d="M71.956,61.437l1.664.984c-.67-8.136-1.47-8.262-1.47-8.262-.227-.035-.446.134-.765.482a11.244,11.244,0,0,0-2.463,6.35l1.441-.28s.369.691-1.018,1.833a13.262,13.262,0,0,0-2.258,2.4l2.274-.333-3.416,3.717,1.164.264L64,71.649l1.424.324-2.823,3,.905.206-1.912,2.115.388.089L60.47,80.075l.258.058-.385,1.549.414,1.007,2.2-4.843.428.462,1.383-2.722.457.348,1.6-3.036.858.923,1.635-4.242,1.216,1.126c.583-1.2.66-4.706.66-4.706l1.6,1.214a3.833,3.833,0,0,0-.158-2.586A11.972,11.972,0,0,1,71.956,61.437Zm-2.229,4.691a62.6,62.6,0,0,1-4.018,6.756c-1.094,1.778-2.644,4.4-4.393,7.708l-.111-.074a72.02,72.02,0,0,1,4.453-7.809c.4-.6,1.63-2.4,3.07-5,.448-.807.672-1.21.92-1.714a23.724,23.724,0,0,0,2.309-7.822,21.963,21.963,0,0,0,.119-2.876l.081-.1a11.518,11.518,0,0,1-.031,2.971A25.465,25.465,0,0,1,69.727,66.128Z" transform="translate(-60.343 -54.154)" fill="#fff"/>
                </g>
                <path id="Path_22259" data-name="Path 22259" d="M71.83,54.807l-.079.1a22.2,22.2,0,0,1-.121,2.876A23.724,23.724,0,0,1,69.32,65.6c-.248.5-.472.907-.92,1.714-1.44,2.595-2.67,4.4-3.07,5a72.018,72.018,0,0,0-4.453,7.809l.111.074c1.749-3.31,3.3-5.93,4.393-7.708A62.6,62.6,0,0,0,69.4,65.73a25.465,25.465,0,0,0,2.4-7.951A11.518,11.518,0,0,0,71.83,54.807Z" transform="translate(-57.212 -53.756)" fill="none"/>
                <g id="Group_900" data-name="Group 900" transform="translate(0 4.784)">
                  <path id="Path_22260" data-name="Path 22260" d="M61.789,57.557a9.037,9.037,0,0,0-.876,1.992,21.108,21.108,0,0,0-.97,6.112,52.549,52.549,0,0,0,.358,5.862c.114,1.556.248,3.827.292,6.624l.089-.013a60.177,60.177,0,0,0-.3-6.711c-.06-.533-.246-2.152-.322-4.368-.024-.689-.035-1.034-.031-1.454a19.568,19.568,0,0,1,.982-6,17.218,17.218,0,0,1,.794-1.958Z" transform="translate(-57.788 -56.86)" fill="none"/>
                  <path id="Path_22261" data-name="Path 22261" d="M62.785,62.77a9.34,9.34,0,0,0,.449-5.067c-.085-.338-.164-.525-.311-.578,0,0-.514-.187-3.364,5.014l1.287-.1a8.945,8.945,0,0,1-1.371,1.9,2.981,2.981,0,0,0-.873,1.672l1.321-.269A14.341,14.341,0,0,0,58.9,68.7l1.063-.34-.3,3.382.789-.327.037,2.566.378-.077,0,2.282.395-.163L61.106,80l.549-.531.238-1.163.172.048-.089-2.306.258.072-.5-2.057.6.169-.775-2.955.944.266-.931-3.089.773.216-.915-3.632,1.255.99a10.873,10.873,0,0,0-.62-2.363c-.483-1.23-.055-1.567-.055-1.567Zm-.957-2.9a19.568,19.568,0,0,0-.982,6c0,.42.006.765.031,1.454.076,2.216.263,3.835.322,4.368a60.177,60.177,0,0,1,.3,6.711l-.089.013c-.043-2.8-.177-5.068-.292-6.624a52.549,52.549,0,0,1-.358-5.862,21.108,21.108,0,0,1,.97-6.112,9.037,9.037,0,0,1,.876-1.992l.019.09A17.218,17.218,0,0,0,61.828,59.87Z" transform="translate(-58.602 -57.124)" fill="#fff"/>
                </g>
              </g>
              <path id="Path_22262" data-name="Path 22262" d="M68.722,55.224" transform="translate(-43.485 -35.059)" fill="#fff"/>
            </g>
          </g>
        </g>
        <g id="Group_905" data-name="Group 905" transform="translate(8.127 45.777)">
          <path id="Path_22263" data-name="Path 22263" d="M65.99,74.978a1.027,1.027,0,0,0-.206-.064,1.243,1.243,0,0,1-.407-.124.989.989,0,0,1-.293-.335,2.066,2.066,0,0,0-.156-.217.918.918,0,0,0-.24-.2c-.185-.106-.395-.163-.557-.258a.907.907,0,0,1-.211-.172,2.5,2.5,0,0,0-.2-.211.721.721,0,0,0-.129-.1.8.8,0,0,0-.148-.066c-.048-.018-.092-.031-.127-.047a.213.213,0,0,1-.081-.055.221.221,0,0,1-.04-.085l-.008-.026-.006-.031c-.006-.023-.016-.042-.024-.063s-.026-.05-.04-.074l.05.026a.938.938,0,0,0,.19.064,1.3,1.3,0,0,0,.23.032,3.964,3.964,0,0,0,.514-.013,2.214,2.214,0,0,1,.48.013.908.908,0,0,1,.19.052.68.68,0,0,1,.145.079.49.49,0,0,1,.1.089.365.365,0,0,1,.058.081l.019.031.011.026c.006.013.011.021.016.021s.008-.008.011-.024l0-.029a.339.339,0,0,0,0-.039.4.4,0,0,0-.132-.225.669.669,0,0,0-.163-.111.84.84,0,0,0-.222-.076,1.947,1.947,0,0,0-.525-.026c-.182.01-.348.027-.5.026a1.365,1.365,0,0,1-.206-.014.873.873,0,0,1-.172-.04.8.8,0,0,1-.2-.093c-.081-.114-.158-.217-.221-.314a1.42,1.42,0,0,1-.15-.288.481.481,0,0,1-.031-.124c0-.019,0-.037,0-.055a.439.439,0,0,1,0-.05.34.34,0,0,1,.058-.138c.019-.029.032-.045.029-.048l0,0,0-.011.011-.019a.107.107,0,0,0,0-.077l-.024-.037-.013-.018-.006-.01-.01-.01c-.029-.024-.056-.05-.087-.074L62.54,71.4l-.027-.018a.52.52,0,0,0-.056-.034,1.481,1.481,0,0,0-.227-.1,2.466,2.466,0,0,0-.4-.1l-.061-.018a.283.283,0,0,0-.064,0,.3.3,0,0,0-.072.013c-.056.016-.071.032-.076.039l-.011.018a.079.079,0,0,0-.006.042.136.136,0,0,0,.019.058l-.018.042c-.008.021-.014.047-.027.074s-.021.061-.035.1-.029.072-.05.111a1.376,1.376,0,0,1-.071.121l-.045.061c-.018.021-.034.042-.052.061-.039.042-.077.082-.124.124s-.09.084-.134.127a1.261,1.261,0,0,0-.116.132c-.018.023-.031.048-.045.069s-.024.043-.035.064c-.021.04-.04.079-.058.114a1.312,1.312,0,0,0-.072.169l-.008.031-.316.184c-.113.063-.224.121-.329.184a1.445,1.445,0,0,0-.28.2.834.834,0,0,0-.172.237.766.766,0,0,0-.043.113l-.016.053-.01.05a1.006,1.006,0,0,0-.018.166v.026l-.032.084-.016.019c-.016.023-.035.045-.058.071a.938.938,0,0,1-.081.076.965.965,0,0,1-.108.072.814.814,0,0,1-.13.063l-.035.013-.037.011c-.026.006-.05.013-.079.018-.11.019-.227.026-.338.047a.9.9,0,0,0-.158.043.762.762,0,0,0-.126.06.528.528,0,0,0-.087.068l-.031.032-.021.031c-.024.035-.031.056-.024.061s.011,0,.023,0l.045-.023.034-.015.035-.018q.041-.019.092-.039a1.009,1.009,0,0,1,.246-.058c.1-.013.217-.016.348-.039.032-.006.066-.014.1-.024l.047-.016.043-.018a.76.76,0,0,0,.1-.052A1.543,1.543,0,0,1,59,74.58c-.126.1-.256.187-.377.28a1.752,1.752,0,0,0-.316.3.939.939,0,0,0-.166.324,1.149,1.149,0,0,0-.042.283,1.587,1.587,0,0,0,.01.211.436.436,0,0,0,.034.179s.01-.016.016-.047.011-.074.018-.13.016-.126.029-.2a1.605,1.605,0,0,1,.068-.261.916.916,0,0,1,.164-.279,1.789,1.789,0,0,1,.3-.264c.118-.087.251-.176.383-.277a1.459,1.459,0,0,0,.356-.374,2.994,2.994,0,0,0,.19-.436.974.974,0,0,1,.217-.351,1.41,1.41,0,0,1,.332-.227,1.826,1.826,0,0,1,.172-.082c.056-.021.114-.039.171-.055l.024-.006a.339.339,0,0,0-.05.116.465.465,0,0,0-.014.1.822.822,0,0,0,0,.11,2.254,2.254,0,0,1,0,.234,1.194,1.194,0,0,1-.04.225.845.845,0,0,1-.031.1c-.01.029-.021.058-.032.084a.49.49,0,0,0-.027.071c-.006.021-.014.039-.019.055-.01.032-.016.05-.01.055s.01,0,.019,0l.039-.023c.016-.011.034-.026.053-.042s.021-.018.031-.029l.027-.035a.984.984,0,0,0,.058-.085.791.791,0,0,0,.05-.1.83.83,0,0,0,.056-.254.734.734,0,0,0,0-.134c0-.042-.01-.081-.016-.118-.011-.074-.023-.137-.026-.19a.567.567,0,0,1,0-.124l0-.021a1.515,1.515,0,0,0,.216-.081.7.7,0,0,0,.19-.134l-.018.037c-.016.034-.029.076-.045.119a.965.965,0,0,0-.029.148,1.226,1.226,0,0,0,.013.364,2.052,2.052,0,0,1,.05.416.778.778,0,0,1-.05.217l-.058.169a.569.569,0,0,1-.074.081.771.771,0,0,1-.164.119,1.007,1.007,0,0,1-.1.048c-.037.015-.077.026-.121.039-.087.024-.187.043-.293.077a1.248,1.248,0,0,0-.164.066.563.563,0,0,0-.079.047.475.475,0,0,0-.072.055,1.013,1.013,0,0,0-.2.248c-.05.084-.089.163-.129.234a1.293,1.293,0,0,1-.122.19.715.715,0,0,1-.143.137,1.124,1.124,0,0,1-.272.143c-.072.026-.116.043-.116.055s.013.011.037.016a.374.374,0,0,0,.1,0,.878.878,0,0,0,.351-.106.84.84,0,0,0,.2-.148,1.259,1.259,0,0,0,.161-.208c.048-.074.092-.151.14-.225a1.013,1.013,0,0,1,.167-.2c.018-.013.034-.027.052-.039a.651.651,0,0,1,.056-.034,1.131,1.131,0,0,1,.126-.053c.09-.031.187-.056.283-.09.047-.018.093-.035.139-.056a.915.915,0,0,0,.122-.074l.052-.04-.011.068c-.013.093-.019.187-.026.28a1.218,1.218,0,0,1-.129.536.872.872,0,0,1-.187.217,2.182,2.182,0,0,1-.245.18c-.085.055-.179.114-.264.172l-.124.09-.118.1a1.917,1.917,0,0,0-.369.407,1.671,1.671,0,0,0-.193.416l-.026.1c-.008.032-.014.063-.021.092-.013.06-.019.116-.027.169-.013.1-.023.195-.024.269h0c-.013.037-.024.072-.034.11l-.027.1-.019.1c0,.031-.013.061-.016.092s-.024.05-.04.076-.031.055-.047.082q-.051.082-.116.169c-.042.058-.09.114-.14.172s-.1.111-.158.159-.111.1-.163.151a.85.85,0,0,0-.13.163.648.648,0,0,0-.068.163.5.5,0,0,0-.018.139.473.473,0,0,0,.011.1.25.25,0,0,0,.023.063c.006.014.013.021.016.019s.008-.008.011-.023l.01-.061a.756.756,0,0,1,.064-.213.736.736,0,0,1,.081-.13,1.042,1.042,0,0,1,.126-.13c.05-.045.108-.09.167-.142a2.177,2.177,0,0,0,.172-.172,2.088,2.088,0,0,0,.143-.188l.04-.063a2.059,2.059,0,0,0,.024.259c.014.1.029.182.042.258l.035.192c.008.053.016.1.023.122s.011.043.016.043.01-.014.016-.043a1.1,1.1,0,0,0,.014-.124c0-.055,0-.122,0-.2s-.008-.164-.013-.259a2.417,2.417,0,0,1,0-.308,1.565,1.565,0,0,1,.014-.169l.013-.089c0-.031.013-.06.019-.09L59.2,78l.029-.092a1.764,1.764,0,0,1,.068-.188.72.72,0,0,1,.043-.1l.045-.1.053-.093.027-.048.031-.047.061-.093c.019-.031.043-.058.066-.089a.876.876,0,0,1,.068-.085l.071-.084.034-.04.039-.039.072-.076c.052-.048.1-.093.153-.14l.156-.126.155-.11.151-.1c.05-.029.1-.056.147-.082.092-.053.184-.1.258-.147q.036-.024.068-.048l-.018.042a.681.681,0,0,0-.055.288,1.355,1.355,0,0,0,.063.378v0c-.034.019-.069.037-.106.055-.084.04-.171.077-.256.118a1.406,1.406,0,0,0-.24.142.7.7,0,0,0-.172.18.762.762,0,0,0-.084.184.782.782,0,0,0-.032.155.6.6,0,0,0,0,.116.36.36,0,0,0,.01.074c0,.016.008.026.014.026s.027-.032.053-.09c.013-.029.024-.066.04-.106s.035-.087.06-.135a.815.815,0,0,1,.093-.145.7.7,0,0,1,.148-.134,1.469,1.469,0,0,1,.214-.116c.079-.037.167-.074.259-.118l.048-.026.006.031a.826.826,0,0,1,.014.108l0,.055,0,.06a1.809,1.809,0,0,1-.119.494,1.439,1.439,0,0,1-.311.482c-.071.076-.153.151-.234.232a1.4,1.4,0,0,0-.219.279.9.9,0,0,0-.106.327,1.325,1.325,0,0,0,0,.319c.013.142.037.274.056.4-.124.056-.246.111-.359.169a2.52,2.52,0,0,0-.356.219,1.5,1.5,0,0,0-.256.245.982.982,0,0,0-.147.24.636.636,0,0,0-.05.2l0,.039,0,.035a.232.232,0,0,0,.008.053q.007.043.014.043s.01-.016.014-.043a.459.459,0,0,1,.013-.05L59,80.88l.013-.035a.756.756,0,0,1,.079-.174,1.11,1.11,0,0,1,.159-.2,1.463,1.463,0,0,1,.251-.208,2.43,2.43,0,0,1,.343-.19c.09-.043.185-.085.285-.129a1.5,1.5,0,0,1,0,.254.875.875,0,0,1-.05.234,1.318,1.318,0,0,1-.221.39,3.269,3.269,0,0,1-.263.293c-.084.084-.159.155-.221.213s-.11.1-.14.135-.047.05-.043.053a1.065,1.065,0,0,0,.237-.142c.071-.05.156-.114.251-.193a2.466,2.466,0,0,0,.3-.288,1.416,1.416,0,0,0,.263-.419.967.967,0,0,0,.066-.263,1.625,1.625,0,0,0,0-.28l-.006-.064a4.17,4.17,0,0,0,.4-.187,2.143,2.143,0,0,0,.407-.28,1.409,1.409,0,0,0,.159-.168,1.037,1.037,0,0,0,.118-.184.882.882,0,0,0,.064-.19,1.061,1.061,0,0,0,.019-.182c0-.058,0-.114,0-.166s0-.1,0-.148c0-.14,0-.259-.008-.356l.006.024c.014.043.031.1.05.148s.043.113.072.174c.055.126.126.263.2.414s.167.314.25.493c.018.042.037.084.055.127v.027a.664.664,0,0,1-.032.155.6.6,0,0,1-.093.171.62.62,0,0,1-.176.148c-.074.043-.163.082-.258.126-.047.023-.1.047-.147.074a1.617,1.617,0,0,0-.143.087,1.7,1.7,0,0,0-.253.2,1.589,1.589,0,0,0-.193.217l-.04.055-.035.056a.9.9,0,0,0-.06.108c-.019.034-.034.071-.048.1s-.024.068-.035.1a.889.889,0,0,0-.039.172.566.566,0,0,0-.01.132.665.665,0,0,0,.008.082c0,.019.006.029.011.031s.01-.01.018-.027.016-.045.029-.077l.023-.055c.006-.021.016-.042.026-.066.016-.047.042-.1.068-.155l.045-.087c.019-.029.034-.061.055-.092s.04-.063.066-.1l.035-.048.039-.048a1.875,1.875,0,0,1,.184-.195,2.207,2.207,0,0,1,.23-.182c.043-.027.085-.056.13-.079a1.494,1.494,0,0,1,.134-.071A1.975,1.975,0,0,0,61.9,80a.819.819,0,0,0,.113-.1.7.7,0,0,0,.164-.293,1.685,1.685,0,0,1,.05.221,1.329,1.329,0,0,1-.069.641,2.967,2.967,0,0,1-.34.651c-.143.217-.3.424-.441.633-.071.1-.137.208-.2.314s-.111.211-.158.317a2.9,2.9,0,0,0-.245,1.161,2.867,2.867,0,0,0,.037.451,2.687,2.687,0,0,0,.082.335l.043.118c.014.034.029.063.04.085.024.045.039.068.043.066s0-.027,0-.076l-.034-.209c-.01-.045-.013-.1-.023-.151s-.01-.114-.018-.179a3.262,3.262,0,0,1,0-.436,3.13,3.13,0,0,1,.275-1.1c.034-.04.072-.082.114-.124.084-.087.184-.179.295-.277s.235-.2.364-.314a4.255,4.255,0,0,0,.38-.382,2.042,2.042,0,0,0,.172-.23l.006-.006v0l0,0,0,0,0,0h0v.01h0l0,.01-.008.052-.008.05-.011.052c-.008.035-.019.069-.027.1s-.023.069-.035.1a5.836,5.836,0,0,1-.3.635,5.8,5.8,0,0,0-.25.53c-.043.045-.092.093-.145.147a2.021,2.021,0,0,0-.224.256,1.193,1.193,0,0,0-.167.343,1.092,1.092,0,0,0-.043.412,2.586,2.586,0,0,0,.082.424,1.751,1.751,0,0,1,.066.4,1.081,1.081,0,0,1-.055.362,1.355,1.355,0,0,1-.15.311c-.029.048-.061.092-.092.134-.016.021-.034.04-.05.06s-.032.039-.05.056l-.048.053L61,85.66c-.031.031-.063.06-.093.085s-.06.052-.085.074-.052.042-.074.058l-.034.026-.027.023-.045.035c-.024.019-.035.031-.032.034s.019,0,.05-.013a.936.936,0,0,0,.132-.055c.027-.015.058-.029.089-.048s.068-.039.1-.064a1.182,1.182,0,0,0,.11-.081l.058-.047.058-.052a.493.493,0,0,0,.058-.058.7.7,0,0,0,.058-.061,1.606,1.606,0,0,0,.111-.139,1.374,1.374,0,0,0,.182-.337,1.175,1.175,0,0,0,.074-.409,1.773,1.773,0,0,0-.068-.43,3.268,3.268,0,0,1-.089-.4,1.019,1.019,0,0,1,.024-.366,1.155,1.155,0,0,1,.132-.316,2.1,2.1,0,0,1,.147-.2,1.519,1.519,0,0,0-.053.409,1.776,1.776,0,0,0,.1.517c.05.151.1.285.145.4s.085.219.121.3a1.025,1.025,0,0,0,.122.251.942.942,0,0,0-.047-.267c-.021-.085-.047-.19-.081-.311s-.074-.256-.113-.406a1.8,1.8,0,0,1-.071-.486,1.652,1.652,0,0,1,.121-.548,5.867,5.867,0,0,1,.282-.589,4.878,4.878,0,0,0,.3-.654c.014-.037.024-.074.035-.111s.021-.074.029-.111l.011-.056.008-.058c0-.018.006-.037.008-.056l0-.018c.023.1.047.2.071.316.027.132.053.275.074.43a2.857,2.857,0,0,1,.029.491,2.681,2.681,0,0,1-.09.538c-.045.185-.1.378-.156.581a3.05,3.05,0,0,0-.1.6,1.558,1.558,0,0,0,.077.577,2.36,2.36,0,0,0,.242.477c.071.113.143.214.211.308.024.047.05.093.076.137.085.153.177.3.264.436a4.854,4.854,0,0,1,.425.778,2.28,2.28,0,0,1,.158.688,2.849,2.849,0,0,1-.008.533c-.016.147-.035.261-.048.338s-.018.119-.01.121.027-.035.056-.111a2.169,2.169,0,0,0,.1-.337,2.515,2.515,0,0,0,.053-.549,2.228,2.228,0,0,0-.134-.726,4.609,4.609,0,0,0-.416-.81,5.12,5.12,0,0,1-.465-.9,1.686,1.686,0,0,1-.1-.509,2.542,2.542,0,0,1,.045-.546c.013-.069.027-.138.043-.209l0,.045a2.316,2.316,0,0,0,.061.327,1.6,1.6,0,0,0,.137.345c.015.029.034.056.05.084s.037.052.055.077c.035.05.071.1.106.147.071.1.14.184.2.271a2.582,2.582,0,0,1,.163.246,1.535,1.535,0,0,1,.106.224c.013.035.023.069.032.1s.016.063.019.093l.011.081,0,.071,0,.031,0,.026c0,.016,0,.031,0,.043s0,.035.01.037.013-.01.026-.032a.411.411,0,0,0,.039-.1l.019-.072c0-.027.006-.058.008-.09s0-.068,0-.1a1.1,1.1,0,0,0-.016-.116,1.35,1.35,0,0,0-.09-.254,2.615,2.615,0,0,0-.155-.271c-.061-.092-.127-.185-.2-.28l-.1-.143a1.254,1.254,0,0,1-.1-.147,1.588,1.588,0,0,1-.13-.308,2.631,2.631,0,0,1-.074-.306c-.008-.05-.014-.1-.021-.145s-.011-.093-.014-.139c-.006-.089-.01-.172-.013-.25v-.045c.034-.13.068-.263.1-.4.01-.05.021-.1.029-.151s.019-.1.024-.153a1.831,1.831,0,0,0,.019-.311c-.008-.206-.042-.4-.063-.588L63.4,81.5c.048.061.1.121.145.177.076.09.15.171.213.25a1.052,1.052,0,0,1,.143.234,1.22,1.22,0,0,1,.069.224c.014.071.024.137.032.195l.021.151c.008.042.013.074.019.1s.011.034.018.034.011-.011.019-.034.013-.055.023-.1a1.288,1.288,0,0,0,.014-.362,1.069,1.069,0,0,0-.055-.253,1.106,1.106,0,0,0-.148-.272c-.063-.087-.137-.172-.209-.259s-.147-.179-.221-.274l-.081-.106.008-.13c.008-.092.006-.185.01-.275s0-.182,0-.271a4.237,4.237,0,0,0-.147-1.007,3.559,3.559,0,0,0-.158-.441,4,4,0,0,0-.2-.39c-.14-.243-.285-.451-.383-.641-.023-.042-.042-.081-.06-.119l.019.026a1.381,1.381,0,0,0,.2.227,2.9,2.9,0,0,0,.258.2,2.58,2.58,0,0,1,.242.192,1.626,1.626,0,0,1,.182.2,1.475,1.475,0,0,1,.127.208,1.306,1.306,0,0,1,.077.193c.008.024.013.045.019.068a.925.925,0,0,0-.021.242.874.874,0,0,0,.077.309,1.694,1.694,0,0,0,.366.488,5.437,5.437,0,0,0,.422.361,2.367,2.367,0,0,1,.343.308.8.8,0,0,1,.108.151.511.511,0,0,1,.055.147.431.431,0,0,1-.11.39c-.026.031-.043.047-.04.05s.027,0,.068-.027A.4.4,0,0,0,65,81.529a.484.484,0,0,0,.063-.285.556.556,0,0,0-.047-.179.787.787,0,0,0-.11-.179,2.226,2.226,0,0,0-.345-.34c-.13-.111-.269-.229-.4-.361a1.558,1.558,0,0,1-.325-.443.721.721,0,0,1-.063-.259,1,1,0,0,1,.032-.277c.023-.1.05-.2.064-.3a1.23,1.23,0,0,0,0-.308,1.319,1.319,0,0,0-.195-.554.962.962,0,0,0-.187-.227,2.408,2.408,0,0,0-.222-.166,2.3,2.3,0,0,1-.369-.287.91.91,0,0,1-.2-.295.937.937,0,0,1-.05-.135.5.5,0,0,1-.021-.089v-.031l0-.069c0-.048.01-.1.019-.164s.023-.129.034-.2a1.318,1.318,0,0,0,.021-.248.732.732,0,0,0-.063-.28,1.461,1.461,0,0,0-.171-.258,1.282,1.282,0,0,1-.076-.116.456.456,0,0,1-.026-.058l-.011-.029-.006-.031a.718.718,0,0,1-.018-.242c.011-.161.042-.311.048-.441l0-.016c.035.047.074.093.114.14.085.1.179.188.267.285a2.156,2.156,0,0,1,.232.287,1.2,1.2,0,0,1,.135.3,2.8,2.8,0,0,0,.106.3.914.914,0,0,0,.076.135.8.8,0,0,0,.1.111,1.167,1.167,0,0,0,.2.158,1.891,1.891,0,0,0,.169.092.683.683,0,0,0,.113.048c.027.008.043.011.047.008s-.006-.015-.024-.035-.05-.042-.089-.074-.089-.068-.14-.111a1.248,1.248,0,0,1-.161-.159.743.743,0,0,1-.071-.1,1.159,1.159,0,0,1-.055-.119,2.175,2.175,0,0,1-.071-.23c0-.024,0-.052,0-.081a.782.782,0,0,0,0-.085c0-.031-.006-.063-.011-.1a1.447,1.447,0,0,0-.053-.216,1.9,1.9,0,0,0-.1-.238c-.04-.082-.089-.167-.14-.251s-.111-.169-.168-.256a1.84,1.84,0,0,1-.142-.251.309.309,0,0,1-.024-.2.608.608,0,0,1,.142.122c.031.034.061.076.1.121a1.178,1.178,0,0,0,.132.147.571.571,0,0,0,.1.069,1.288,1.288,0,0,0,.116.056,1.132,1.132,0,0,1,.222.1.374.374,0,0,1,.137.182c.006.019.013.039.018.055s0,.039.006.06a.881.881,0,0,0,.014.148.257.257,0,0,0,.037.084.472.472,0,0,0,.055.069c.04.042.082.079.122.114a1.465,1.465,0,0,1,.113.108l.023.029.024.032.048.064q.068.094.13.193v0a.461.461,0,0,1,0,.142.947.947,0,0,1-.043.185c-.023.068-.055.142-.092.224a1.576,1.576,0,0,0-.1.272.672.672,0,0,0-.023.163.688.688,0,0,0,.021.171,1.993,1.993,0,0,0,.126.322.953.953,0,0,1,.093.292.41.41,0,0,1-.008.134,1.353,1.353,0,0,1-.047.135.9.9,0,0,0-.048.145.641.641,0,0,0-.011.077.38.38,0,0,0,0,.074.608.608,0,0,0,.081.251,1.018,1.018,0,0,0,.124.179,1.034,1.034,0,0,0,.116.119c.034.031.063.053.082.068s.032.021.037.018,0-.015-.011-.034a.942.942,0,0,0-.048-.087l-.037-.061-.045-.069a1.364,1.364,0,0,1-.092-.176.581.581,0,0,1-.05-.214c0-.019,0-.037,0-.058s.006-.039.013-.058a.921.921,0,0,1,.05-.126,1.2,1.2,0,0,0,.061-.15.545.545,0,0,0,.019-.177.722.722,0,0,0-.035-.176c-.019-.056-.043-.111-.068-.164a2.41,2.41,0,0,1-.124-.3.529.529,0,0,1-.023-.138.64.64,0,0,1,.011-.135,1.776,1.776,0,0,1,.076-.259,1.96,1.96,0,0,0,.071-.238.763.763,0,0,0,.019-.193l.138.227.1.155.048.077c.015.023.018.037.016.037a.1.1,0,0,1-.027.035.961.961,0,0,0-.072.081.472.472,0,0,0-.089.2.687.687,0,0,0,.06.4,1.841,1.841,0,0,0,.2.324,2.326,2.326,0,0,1,.192.285.759.759,0,0,1,.093.287c.013.1.013.2.016.3,0,.05,0,.1.01.151a1.5,1.5,0,0,0,.023.148,2.436,2.436,0,0,0,.15.459h0s0,.01,0,.021l.013.043a.368.368,0,0,1,0,.161.667.667,0,0,1-.031.11c-.014.039-.034.079-.055.122s-.045.092-.068.143a.758.758,0,0,0-.055.171.44.44,0,0,0,.006.184.718.718,0,0,0,.061.156c.024.047.05.087.074.126s.045.074.066.106a1.727,1.727,0,0,0,.111.15.217.217,0,0,0,.035.039c.008.008.014.013.019.011s0-.008,0-.019a.318.318,0,0,0-.011-.048A1.525,1.525,0,0,0,65.3,80.4c-.013-.035-.031-.072-.048-.113s-.039-.084-.058-.127a.827.827,0,0,1-.043-.135.38.38,0,0,1,0-.142,1.382,1.382,0,0,1,.1-.292.981.981,0,0,0,.042-.14.831.831,0,0,0,.011-.1c.032.072.061.142.087.2a2.607,2.607,0,0,1,.11.306l0,.013a2.34,2.34,0,0,0,.048.309.889.889,0,0,0,.113.269,2.111,2.111,0,0,0,.155.2,1.485,1.485,0,0,1,.122.164.468.468,0,0,1,.081.253c0,.061-.016.092-.008.1s.032-.026.048-.092A.435.435,0,0,0,66,80.792a1.228,1.228,0,0,0-.114-.18c-.045-.063-.1-.129-.137-.2a.793.793,0,0,1-.087-.248,2.314,2.314,0,0,1-.035-.3c-.032-.428-.076-.937-.126-1.5a4.285,4.285,0,0,0-.158-.892c-.018-.058-.04-.116-.063-.174.018.019.037.039.056.056.106.1.237.185.348.287a.756.756,0,0,1,.134.159.67.67,0,0,1,.072.169.82.82,0,0,1,.018.314c0,.047-.014.087-.021.124s-.016.068-.023.093c-.013.053-.019.084-.01.087s.013,0,.024-.014a.35.35,0,0,0,.043-.053.747.747,0,0,0,.052-.092.656.656,0,0,0,.048-.129.747.747,0,0,0,.018-.354.635.635,0,0,0-.077-.206.84.84,0,0,0-.158-.19,2.171,2.171,0,0,0-.19-.151c-.063-.047-.121-.089-.174-.13a1.027,1.027,0,0,1-.135-.126.636.636,0,0,1-.089-.124l-.026-.053a1.3,1.3,0,0,1,.116-.37l.024-.058a.5.5,0,0,0,.021-.064.757.757,0,0,0,.029-.13.885.885,0,0,0-.008-.261,1.007,1.007,0,0,0-.232-.462,1.5,1.5,0,0,0-.412-.329,2.4,2.4,0,0,1-.206-.124.729.729,0,0,1-.151-.147.606.606,0,0,1-.1-.172.65.65,0,0,1-.035-.185,1.834,1.834,0,0,0-.016-.2.416.416,0,0,0-.089-.206.524.524,0,0,0-.195-.137c-.069-.031-.139-.052-.2-.074a1.03,1.03,0,0,1-.171-.074.9.9,0,0,1-.14-.1.729.729,0,0,1-.267-.485c0-.032,0-.066,0-.1a.385.385,0,0,0,.06.035c.05.023.1.039.14.055a.579.579,0,0,1,.114.055.571.571,0,0,1,.1.077,2.612,2.612,0,0,1,.188.2,1.435,1.435,0,0,0,.111.11.949.949,0,0,0,.135.1,2.72,2.72,0,0,0,.295.142,2.354,2.354,0,0,1,.263.122.717.717,0,0,1,.195.156,2.346,2.346,0,0,1,.148.2,1.985,1.985,0,0,0,.153.2.794.794,0,0,0,.206.171.436.436,0,0,0,.061.031.345.345,0,0,0,.063.026,1.049,1.049,0,0,0,.126.034c.081.016.156.026.224.037a.981.981,0,0,1,.18.045.522.522,0,0,1,.137.071.466.466,0,0,1,.151.184.428.428,0,0,1,.04.142c0,.035,0,.055.01.055s.016-.016.026-.052a.289.289,0,0,0,0-.164.475.475,0,0,0-.147-.234A.6.6,0,0,0,65.99,74.978Z" transform="translate(-58.098 -71.127)" fill="#fff"/>
        </g>
      </g>
    </g>
    <g id="Group_934" data-name="Group 934" transform="translate(87.574 6282.251)">
      <text id="At" transform="translate(3.426 92.754)" fill="#fff" font-size="59" font-family="HenriDidot, Henri Didot" style="isolation: isolate"><tspan x="0" y="0">At</tspan></text>
      <g id="bioloģiskā" transform="translate(7.426 94.909)" style="isolation: isolate">
        <text id="bioloģiskā_saimniecība" data-name="bioloģiskā saimniecība" transform="translate(0 18)" fill="#fff" font-size="17" font-family="Manrope-Light, Manrope" font-weight="300" style="isolation: isolate"><tspan x="0" y="0">bioloģiskā saimniecība</tspan></text>
      </g>
      <text id="ases" transform="translate(85.022 93.065)" fill="#fff" font-size="59" font-family="HenriDidot, Henri Didot" style="isolation: isolate"><tspan x="0" y="0">ases</tspan></text>
    </g>
  </g>
</svg>
